<svg width="700" height="700" xmlns="http://www.w3.org/2000/svg" xmlns:xlink="http://www.w3.org/1999/xlink" ><defs><style>@import url('https://fonts.googleapis.com/css2?family=Roboto:wght@300&amp;display=swap');</style></defs><style><![CDATA[.k { fill: none; } .l { text-anchor: middle; text-transform: uppercase; }]]></style><circle id="1" cx="350" cy="350" r="300" stroke="#FFF" stroke-width="1" fill="#201E50" /><circle id="1" cx="350" cy="350" r="250" stroke="#FFF" stroke-width="1" fill="#FFFFFF" /><circle id="2" cx="350" cy="350" r="245" stroke="#201E50" stroke-width="0.75" fill="#FFFFFF" stroke-dasharray="4,4"  /><circle id="1" cx="350" cy="350" r="80" stroke="#201E50" stroke-width="1" fill="#FFFFFF" /><circle id="1" cx="350" cy="350" r="50" stroke="#201E50" stroke-width="1" fill="#FFFFFF" /><line id="MhwOPxc2dEZUXlVdY1hfVEFVf1JEWWQ=" x1="597.8474955294962" y1="317.2644083640394" x2="647.4169946353954" y2="310.7172900368473" stroke="#FFF" stroke-width="2" /><line id="MhwOPxc2cF9PWVNZZlxaVUFUf1VFW2I=" x1="548.2744315749136" y1="197.72639827059677" x2="587.9293178898963" y2="167.27167792471616" stroke="#FFF" stroke-width="2" /><line id="MhwOPxc2dV9PWVNZZlxaVUFUf1VFW2I=" x1="445.57389380009295" y1="118.98997678912599" x2="464.6886725601115" y2="72.78797214695118" stroke="#FFF" stroke-width="2" /><line id="MhwOPxc2el9PWVNZZlxaVUFUf1VFW2I=" x1="317.26440836403947" y1="102.15250447050383" x2="310.7172900368473" y2="52.58300536460462" stroke="#FFF" stroke-width="2" /><line id="MhwOPxc2clpWQlRfYlleUEBUflVCWmFD" x1="197.72639827059677" y1="151.7255684250864" x2="167.27167792471616" y2="112.07068211010369" stroke="#FFF" stroke-width="2" /><line id="MhwOPxc2cl1WQlRfYlleUEBUflVCWmE=" x1="118.98997678912599" y1="254.42610619990705" x2="72.78797214695118" y2="235.3113274398885" stroke="#FFF" stroke-width="2" /><line id="MhwOPxc2clBWQlRfYlleUEBUflVCWmE=" x1="102.15250447050383" y1="382.73559163596053" x2="52.58300536460462" y2="389.2827099631526" stroke="#FFF" stroke-width="2" /><line id="MhwOPxc2cVlWQlRfYlleUEBUflVCWmE=" x1="151.72556842508646" y1="502.27360172940325" x2="112.07068211010375" y2="532.7283220752839" stroke="#FFF" stroke-width="2" /><line id="MhwOPxc2cVxWQlRfYlleUEBUflVCWmE=" x1="254.4261061999071" y1="581.010023210874" x2="235.31132743988852" y2="627.2120278530489" stroke="#FFF" stroke-width="2" /><line id="MhwOPxc2cV9WQlRfYlleUEBUflVCWmE=" x1="382.7355916359605" y1="597.8474955294962" x2="389.28270996315257" y2="647.4169946353954" stroke="#FFF" stroke-width="2" /><line id="MhwOPxc2cFhWQlRfYlleUEBUflVCWmE=" x1="502.27360172940325" y1="548.2744315749136" x2="532.7283220752839" y2="587.9293178898963" stroke="#FFF" stroke-width="2" /><line id="MhwOPxc2cFtWQlRfYlleUEBUflVCWmE=" x1="581.010023210874" y1="445.57389380009295" x2="627.2120278530488" y2="464.6886725601115" stroke="#FFF" stroke-width="2" /><line id="Ix4IPRcdHBgOHz5fCVpdVlpUeVVGXGJGXGZGXXBa" x1="110.0" y1="350.00000000000006" x2="105.0" y2="350.00000000000006" stroke="#201E50" stroke-width="2" /><line id="Ix4IPRcdHBgOHz5fCVpdVlpUeVVGXGJGXGZGXXBa" x1="268.1441695706445" y1="124.39055200475181" x2="266.4388397700329" y2="119.69035517151747" stroke="#201E50" stroke-width="2" /><line id="Ix4IPRcdHBgOHz5fCVpdVlpUeVVGXGJGXGZGXXBa" x1="112.24831728130397" y1="317.2259650877636" x2="107.29515722466448" y2="316.54317269375866" stroke="#201E50" stroke-width="2" /><line id="Ix4IPRcdHBgOHz5fCVpdVlpUeVVGXGJGXGZGXXBa" x1="207.6164590995458" y1="156.79822133156048" x2="204.65013533078636" y2="152.773184275968" stroke="#201E50" stroke-width="2" /><line id="Ix4IPRcdHBgOHz5fCVpdVlpUeVVGXGJGXGZGXXBa" x1="238.120880186877" y1="137.67227559774284" x2="235.7900651907703" y2="133.24878133936247" stroke="#201E50" stroke-width="2" /><line id="Ix4IPRcdHBgOHz5fCVpdVlpUeVVGXGJGXGZGXXBa" x1="292.08430360839384" y1="117.09278218252811" x2="290.87772660023535" y2="112.24054847799744" stroke="#201E50" stroke-width="2" /><line id="Ix4IPRcdHBgOHz5fCVpdVlpUeVVGXGJGXGZGXXBa" x1="445.8802174384916" y1="129.98412806357" x2="447.87772196846015" y2="125.40046406489438" stroke="#201E50" stroke-width="2" /><line id="Ix4IPRcdHBgOHz5fCVpdVlpUeVVGXGJGXGZGXXBa" x1="151.38573911742213" y1="215.26924859532886" x2="147.24794201570174" y2="212.46235794106488" stroke="#201E50" stroke-width="2" /><line id="Ix4IPRcdHBgOHz5fCVpdVlpUeVVGXGJGXGZGXXBa" x1="399.44467530151144" y1="115.14850631872042" x2="400.4747727036263" y2="110.25576686702709" stroke="#201E50" stroke-width="2" /><line id="Ix4IPRcdHBgOHz5fCVpdVlpUeVVGXGJGXGZGXXBa" x1="437.2880991003393" y1="126.43616626240876" x2="439.1066011649297" y2="121.77858639287561" stroke="#201E50" stroke-width="2" /><line id="Ix4IPRcdHBgOHz5fCVpdVlpUeVVGXGJGXGZGXXBa" x1="581.2146004286327" y1="285.65865599299536" x2="586.0315712708959" y2="284.3182113261828" stroke="#201E50" stroke-width="2" /><line id="Ix4IPRcdHBgOHz5fCVpdVlpUeVVGXGJGXGZGXXBa" x1="189.24761256022245" y1="171.7903764315416" x2="185.8986044885604" y2="168.07767594053203" stroke="#201E50" stroke-width="2" /><line id="Ix4IPRcdHBgOHz5fCVpdVlpUeVVGXGJGXGZGXXBa" x1="117.80968138211466" y1="289.2739270154501" x2="112.97238307757536" y2="288.00880049493867" stroke="#201E50" stroke-width="2" /><line id="Ix4IPRcdHBgOHz5fCVpdVlpUeVVGXGJGXGZGXXBa" x1="503.7249361642631" y1="534.3058436439096" x2="506.92753900101854" y2="538.1455487198243" stroke="#201E50" stroke-width="2" /><line id="Ix4IPRcdHBgOHz5fCVpdVlpUeVVGXGJGXGZGXXBa" x1="313.5312462939938" y1="112.7869522915515" x2="312.7714805917853" y2="107.84501379762548" stroke="#201E50" stroke-width="2" /><line id="Ix4IPRcdHBgOHz5fCVpdVlpUeVVGXGJGXGZGXXBa" x1="589.484109353574" y1="365.7277260634015" x2="594.4733616317735" y2="366.05538702305574" stroke="#201E50" stroke-width="2" /><line id="Ix4IPRcdHBgOHz5fCVpdVlpUeVVGXGJGXGZGXXBa" x1="523.3528899981887" y1="515.9782381195675" x2="526.9644085398177" y2="519.4361180803919" stroke="#201E50" stroke-width="2" /><line id="Ix4IPRcdHBgOHz5fCVpdVlpUeVVGXGJGXGZGXXBa" x1="424.20421587919304" y1="578.2405186327662" x2="425.7501370433429" y2="582.9955294376156" stroke="#201E50" stroke-width="2" /><line id="Ix4IPRcdHBgOHz5fCVpdVlpUeVVGXGJGXGZGXXBa" x1="424.28591887740254" y1="578.2139396630713" x2="425.8335421873484" y2="582.9683967393853" stroke="#201E50" stroke-width="2" /><line id="Ix4IPRcdHBgOHz5fCVpdVlpUeVVGXGJGXGZGXXBa" x1="590.0" y1="349.99999999999994" x2="595.0" y2="349.99999999999994" stroke="#201E50" stroke-width="2" /><line id="Ix4IPRcdHBgOHz5fCVpdVlpUeVVGXGJGXGZGXXBa" x1="394.9276993231127" y1="114.24270566208989" x2="395.8636930590108" y2="109.33109536338341" stroke="#201E50" stroke-width="2" /><line id="Ix4IPRcdHBgOHz5fCVpdVlpUeVVGXGJGXGZGXXBa" x1="305.0723006768874" y1="585.7572943379101" x2="304.1363069409892" y2="590.6689046366166" stroke="#201E50" stroke-width="2" /><path id="KQFQ" d="M568.1018747324049,182.49903809765647 C593.8746539747697,222.91674717459279 612.2374252626404,267.1958165814003 622.6322450824457,313.9908492004434" class="k"></path><g font-size="18px" font-family="Roboto" fill="#E5E5E5"><text><textPath startOffset="50%" xlink:href="#KQFQ" class="l">Sagittarius</textPath></text></g><path id="KQFYYw==" d="M455.1312831801022,95.88897446803858 C497.66001926858644,118.00534767025195 535.7021803911698,147.17076098854625 568.1018747324049,182.49903809765647" class="k"></path><g font-size="18px" font-family="Roboto" fill="#E5E5E5"><text><textPath startOffset="50%" xlink:href="#KQFYYw==" class="l">Capricorn</textPath></text></g><path id="KQFYYg==" d="M313.9908492004434,77.36775491755424 C361.8800016450215,75.25672790600623 409.40818625118675,81.49363619023046 455.1312831801022,95.88897446803858" class="k"></path><g font-size="18px" font-family="Roboto" fill="#E5E5E5"><text><textPath startOffset="50%" xlink:href="#KQFYYg==" class="l">Aquarius</textPath></text></g><path id="KQFYYQ==" d="M182.49903809765647,131.89812526759505 C222.91674717459279,106.12534602523033 267.1958165814003,87.76257473735961 313.9908492004434,77.36775491755424" class="k"></path><g font-size="18px" font-family="Roboto" fill="#E5E5E5"><text><textPath startOffset="50%" xlink:href="#KQFYYQ==" class="l">Pisces</textPath></text></g><path id="KQFY" d="M95.88897446803858,244.86871681989777 C118.00534767025195,202.3399807314135 147.17076098854633,164.29781960883014 182.49903809765647,131.89812526759505" class="k"></path><g font-size="18px" font-family="Roboto" fill="#E5E5E5"><text><textPath startOffset="50%" xlink:href="#KQFY" class="l">Aries</textPath></text></g><path id="KQFb" d="M77.36775491755424,386.0091507995566 C75.25672790600623,338.11999835497835 81.49363619023046,290.59181374881337 95.88897446803858,244.86871681989777" class="k"></path><g font-size="18px" font-family="Roboto" fill="#E5E5E5"><text><textPath startOffset="50%" xlink:href="#KQFb" class="l">Taurus</textPath></text></g><path id="KQFa" d="M77.36775491755424,386.0091507995566 C73.45871517757922,437.3207752414324 92.82309217206108,484.01506661588394 131.8981252675951,517.5009619023435" class="k"></path><g font-size="18px" font-family="Roboto" fill="#E5E5E5"><text><textPath startOffset="50%" xlink:href="#KQFa" class="l">Gemini</textPath></text></g><path id="KQFd" d="M131.8981252675951,517.5009619023435 C154.16860976931173,563.8926520484421 194.2857978622179,594.6489060931889 244.86871681989783,604.1110255319614" class="k"></path><g font-size="18px" font-family="Roboto" fill="#E5E5E5"><text><textPath startOffset="50%" xlink:href="#KQFd" class="l">Cancer</textPath></text></g><path id="KQFc" d="M244.86871681989783,604.1110255319614 C287.35136722602135,633.1521654721206 337.4719982652499,639.7292687536661 386.00915079955655,622.6322450824458" class="k"></path><g font-size="18px" font-family="Roboto" fill="#E5E5E5"><text><textPath startOffset="50%" xlink:href="#KQFc" class="l">Leo</textPath></text></g><path id="KQFf" d="M386.00915079955655,622.6322450824458 C437.3207752414324,626.5412848224207 484.015066615884,607.176907827939 517.5009619023435,568.1018747324049" class="k"></path><g font-size="18px" font-family="Roboto" fill="#E5E5E5"><text><textPath startOffset="50%" xlink:href="#KQFf" class="l">Virgo</textPath></text></g><path id="KQFe" d="M517.5009619023435,568.1018747324049 C563.8926520484421,545.8313902306882 594.6489060931888,505.71420213778214 604.1110255319614,455.13128318010223" class="k"></path><g font-size="18px" font-family="Roboto" fill="#E5E5E5"><text><textPath startOffset="50%" xlink:href="#KQFe" class="l">Libra</textPath></text></g><path id="KQFR" d="M604.1110255319614,455.13128318010223 C633.1521654721206,412.6486327739787 639.7292687536661,362.5280017347501 622.6322450824458,313.99084920044345" class="k"></path><g font-size="18px" font-family="Roboto" fill="#E5E5E5"><text><textPath startOffset="50%" xlink:href="#KQFR" class="l">Scorpio</textPath></text></g><text x="286.90965628946134" y="365.6399658083416" font-family="Arial" font-size="10" fill="#201E50" text-anchor="middle" dominant-baseline="middle">1</text><text x="300.49214708201845" y="392.1185529126002" font-family="Arial" font-size="10" fill="#201E50" text-anchor="middle" dominant-baseline="middle">2</text><text x="323.63654783626055" y="409.4135370939168" font-family="Arial" font-size="10" fill="#201E50" text-anchor="middle" dominant-baseline="middle">3</text><text x="354.9703065876264" y="414.8096910378764" font-family="Arial" font-size="10" fill="#201E50" text-anchor="middle" dominant-baseline="middle">4</text><text x="389.1718900226604" y="401.87063747490095" font-family="Arial" font-size="10" fill="#201E50" text-anchor="middle" dominant-baseline="middle">5</text><text x="411.9158797396759" y="369.7844341860461" font-family="Arial" font-size="10" fill="#201E50" text-anchor="middle" dominant-baseline="middle">6</text><text x="413.09034371053866" y="334.3600341916583" font-family="Arial" font-size="10" fill="#201E50" text-anchor="middle" dominant-baseline="middle">7</text><text x="399.50785291798155" y="307.8814470873998" font-family="Arial" font-size="10" fill="#201E50" text-anchor="middle" dominant-baseline="middle">8</text><text x="376.36345216373945" y="290.5864629060833" font-family="Arial" font-size="10" fill="#201E50" text-anchor="middle" dominant-baseline="middle">9</text><text x="345.02969341237355" y="285.1903089621236" font-family="Arial" font-size="10" fill="#201E50" text-anchor="middle" dominant-baseline="middle">10</text><text x="310.82810997733964" y="298.12936252509905" font-family="Arial" font-size="10" fill="#201E50" text-anchor="middle" dominant-baseline="middle">11</text><text x="288.0841202603241" y="330.21556581395396" font-family="Arial" font-size="10" fill="#201E50" text-anchor="middle" dominant-baseline="middle">12</text><svg x="120.0" y="340.0"  width="22" height="8.610" viewBox="0 0 35.033 13.711" xmlns="http://www.w3.org/2000/svg"><g id="svgGroup" stroke-linecap="round" fill-rule="nonzero" font-size="9pt" stroke="#4A5859" stroke-width="0.3mm" fill="#4A5859" style="stroke:#4A5859;stroke-width:0.3mm;fill:#4A5859"><path d="M 34.761 11.461 L 35.033 11.733 A 6.335 6.335 0 0 1 32.889 13.188 A 6.812 6.812 0 0 1 30.665 13.696 A 8.023 8.023 0 0 1 30.164 13.711 A 7.405 7.405 0 0 1 28.336 13.492 A 6.533 6.533 0 0 1 27.457 13.201 Q 26.218 12.692 25.304 11.769 A 6.467 6.467 0 0 1 23.889 9.593 A 7.067 7.067 0 0 1 23.412 7.494 A 8.383 8.383 0 0 1 23.388 6.856 Q 23.388 5.37 23.889 4.118 A 6.467 6.467 0 0 1 25.304 1.942 Q 26.218 1.02 27.457 0.51 A 6.857 6.857 0 0 1 29.622 0.018 A 8.103 8.103 0 0 1 30.164 0 A 7.297 7.297 0 0 1 32.002 0.225 A 6.449 6.449 0 0 1 32.884 0.523 Q 34.128 1.046 35.033 1.969 L 34.761 2.25 A 6.025 6.025 0 0 0 32.73 0.866 A 6.387 6.387 0 0 0 30.672 0.387 A 7.537 7.537 0 0 0 30.155 0.369 A 6.902 6.902 0 0 0 28.437 0.577 A 6.099 6.099 0 0 0 27.611 0.853 A 6.037 6.037 0 0 0 25.589 2.211 Q 24.732 3.085 24.258 4.267 A 6.654 6.654 0 0 0 23.806 6.251 A 7.924 7.924 0 0 0 23.783 6.856 A 7.283 7.283 0 0 0 23.978 8.565 A 6.335 6.335 0 0 0 24.258 9.444 A 6.209 6.209 0 0 0 25.589 11.501 A 6.037 6.037 0 0 0 27.611 12.858 A 6.396 6.396 0 0 0 29.645 13.325 A 7.552 7.552 0 0 0 30.155 13.342 A 6.813 6.813 0 0 0 31.934 13.116 A 6.055 6.055 0 0 0 32.73 12.841 A 6.144 6.144 0 0 0 34.761 11.461 Z M 13.315 12.296 L 13.535 11.988 A 6.255 6.255 0 0 0 14.643 12.731 A 5.341 5.341 0 0 0 15.851 13.188 Q 16.479 13.342 17.13 13.342 A 4.934 4.934 0 0 0 18.166 13.238 A 3.909 3.909 0 0 0 19.077 12.924 A 3.432 3.432 0 0 0 19.993 12.279 A 3.118 3.118 0 0 0 20.404 11.773 A 2.96 2.96 0 0 0 20.877 10.295 A 3.629 3.629 0 0 0 20.883 10.09 Q 20.883 9.147 20.439 8.534 A 2.066 2.066 0 0 0 20.382 8.46 A 3.92 3.92 0 0 0 19.427 7.606 A 4.682 4.682 0 0 0 19.099 7.414 A 19.348 19.348 0 0 0 17.455 6.636 Q 16.813 6.363 16.198 6.065 A 6.247 6.247 0 0 1 15.309 5.541 A 5.586 5.586 0 0 1 15.086 5.375 A 2.973 2.973 0 0 1 14.3 4.447 A 2.329 2.329 0 0 1 14.065 3.775 Q 14.01 3.486 14.01 3.155 A 3.217 3.217 0 0 1 14.141 2.221 A 2.764 2.764 0 0 1 14.476 1.503 A 3.025 3.025 0 0 1 15.552 0.513 A 3.697 3.697 0 0 1 15.781 0.396 A 4.088 4.088 0 0 1 16.929 0.056 A 5.372 5.372 0 0 1 17.719 0 Q 18.448 0 19.138 0.18 A 5.184 5.184 0 0 1 20.435 0.712 L 20.232 1.055 Q 19.626 0.721 18.976 0.545 A 4.967 4.967 0 0 0 17.675 0.369 A 4.439 4.439 0 0 0 16.786 0.454 A 3.447 3.447 0 0 0 15.983 0.721 A 2.959 2.959 0 0 0 15.171 1.285 A 2.709 2.709 0 0 0 14.827 1.701 A 2.494 2.494 0 0 0 14.413 2.939 A 3.09 3.09 0 0 0 14.405 3.155 A 2.747 2.747 0 0 0 14.48 3.813 A 1.991 1.991 0 0 0 14.875 4.614 A 3.678 3.678 0 0 0 15.671 5.329 A 4.542 4.542 0 0 0 16.088 5.577 A 20.815 20.815 0 0 0 17.452 6.231 A 23.039 23.039 0 0 0 17.657 6.319 A 24.139 24.139 0 0 1 18.967 6.917 A 6.469 6.469 0 0 1 19.99 7.542 A 5.906 5.906 0 0 1 20.131 7.651 A 3.196 3.196 0 0 1 20.966 8.653 A 2.535 2.535 0 0 1 21.21 9.345 Q 21.278 9.681 21.278 10.072 A 3.645 3.645 0 0 1 21.103 11.218 A 3.236 3.236 0 0 1 20.751 11.958 A 3.594 3.594 0 0 1 19.382 13.201 A 4.27 4.27 0 0 1 19.296 13.245 Q 18.369 13.711 17.165 13.711 A 5.81 5.81 0 0 1 15.139 13.346 A 6.287 6.287 0 0 1 13.315 12.296 Z M 2.232 9.158 L 0.422 13.447 L 0 13.447 L 5.572 0.264 L 6.073 0.264 L 11.646 13.447 L 11.224 13.447 L 9.404 9.158 L 2.232 9.158 Z M 5.818 0.668 L 2.391 8.789 L 9.255 8.789 L 5.818 0.668 Z"/></g></svg><svg x="264.9654887730908" y="133.19133933768916"  width="15" height="15" viewBox="0 0 38.136 38.16" xmlns="http://www.w3.org/2000/svg"><g id="svgGroup" stroke-linecap="round" fill-rule="nonzero" font-size="3pt" stroke="#4A5859" stroke-width="0.025mm" fill="#4A5859" style="stroke:#4A5859;stroke-width:0.025mm;fill:#4A5859"><path d="M 19.068 0 Q 22.754 0 26.05 1.331 Q 29.346 2.661 31.885 4.956 A 19.758 19.758 0 0 1 36.438 11.267 A 18.384 18.384 0 0 1 38.135 19.068 A 18.309 18.309 0 0 1 36.438 26.905 A 19.875 19.875 0 0 1 31.885 33.179 Q 29.322 35.474 26.026 36.817 Q 22.73 38.159 19.068 38.159 Q 15.113 38.159 11.646 36.67 A 19.217 19.217 0 0 1 5.579 32.581 A 19.217 19.217 0 0 1 1.489 26.514 A 19.069 19.069 0 0 1 0.444 23.177 A 21.123 21.123 0 0 1 0.391 22.925 Q 0 21.021 0 19.068 A 20.375 20.375 0 0 1 0.465 14.641 A 17.226 17.226 0 0 1 1.319 11.89 A 18.736 18.736 0 0 1 4.306 6.993 A 21.681 21.681 0 0 1 4.956 6.25 A 19.478 19.478 0 0 1 11.243 1.697 Q 14.917 0 19.068 0 Z M 19.068 4.199 A 14.305 14.305 0 0 0 8.694 8.422 A 17.339 17.339 0 0 0 8.557 8.557 A 14.307 14.307 0 0 0 4.201 18.876 A 17.253 17.253 0 0 0 4.199 19.068 A 14.285 14.285 0 0 0 8.434 29.441 A 17.36 17.36 0 0 0 8.57 29.578 A 14.321 14.321 0 0 0 18.877 33.935 A 17.118 17.118 0 0 0 19.068 33.936 A 14.305 14.305 0 0 0 29.441 29.713 A 17.339 17.339 0 0 0 29.578 29.578 A 14.307 14.307 0 0 0 33.935 19.259 A 17.253 17.253 0 0 0 33.936 19.068 A 14.31 14.31 0 0 0 32.447 12.622 A 15.348 15.348 0 0 0 29.002 8.015 A 14.744 14.744 0 0 0 28.516 7.593 Q 24.39 4.199 19.068 4.199 Z M 19.068 14.844 Q 20.801 14.844 22.046 16.089 A 4.164 4.164 0 0 1 23.086 17.74 A 4.216 4.216 0 0 1 23.291 19.068 Q 23.291 20.655 22.193 21.9 A 4.406 4.406 0 0 1 20.813 22.921 A 4.113 4.113 0 0 1 19.068 23.291 A 4.301 4.301 0 0 1 17.411 22.98 A 4.022 4.022 0 0 1 16.052 22.046 A 4.126 4.126 0 0 1 14.844 19.068 A 4.126 4.126 0 0 1 16.052 16.089 A 4.012 4.012 0 0 1 18.955 14.845 A 5.163 5.163 0 0 1 19.068 14.844 Z"/></g></svg><svg x="122.06095750786199" y="309.9571346637833"  width="15" height="15" viewBox="0 0 28.467 38.184" xmlns="http://www.w3.org/2000/svg"><g id="svgGroup" stroke-linecap="round" fill-rule="nonzero" font-size="9pt" stroke="#4A5859" stroke-width="0.025mm" fill="#4A5859" style="stroke:#4A5859;stroke-width:0.025mm;fill:#4A5859"><path d="M 11.133 0 Q 14.478 0 17.407 1.27 A 17.016 17.016 0 0 1 22.121 4.353 A 19.766 19.766 0 0 1 22.778 4.981 A 19.284 19.284 0 0 1 26.173 9.741 A 22.93 22.93 0 0 1 26.904 11.316 Q 28.467 15.039 28.467 19.092 A 21.418 21.418 0 0 1 27.939 23.923 A 18.335 18.335 0 0 1 27.1 26.612 A 19.696 19.696 0 0 1 23.376 32.618 A 17.362 17.362 0 0 1 17.834 36.695 A 15.64 15.64 0 0 1 11.133 38.184 A 15.316 15.316 0 0 1 4.322 36.56 A 18.153 18.153 0 0 1 3.638 36.206 A 17.519 17.519 0 0 1 2.664 35.632 Q 1.587 34.955 0.199 33.915 A 60.189 60.189 0 0 1 0 33.765 Q 0.732 33.838 1.44 33.838 A 10.937 10.937 0 0 0 3.638 33.619 A 11.787 11.787 0 0 0 10.705 28.816 A 15.629 15.629 0 0 0 11.206 28.077 A 16.273 16.273 0 0 0 13.794 19.092 Q 13.794 13.697 10.767 9.497 Q 8.643 6.47 5.371 5.103 Q 3.467 4.346 1.416 4.346 L 0.842 4.346 A 1.84 1.84 0 0 0 0.707 4.352 Q 0.466 4.37 0.024 4.444 Q 1.88 2.784 3.711 1.856 A 18.307 18.307 0 0 1 6.458 0.725 A 16.255 16.255 0 0 1 7.373 0.464 Q 9.204 0 11.133 0 Z M 9.724 4.598 A 14.603 14.603 0 0 1 11.621 5.957 A 18.1 18.1 0 0 1 14.624 9.375 A 17.019 17.019 0 0 1 17.603 19.092 A 17.802 17.802 0 0 1 14.917 28.54 Q 13.55 30.787 11.986 32.199 A 11.617 11.617 0 0 1 11.816 32.349 Q 9.692 34.229 7.08 34.839 A 6.552 6.552 0 0 0 7.846 35.033 Q 8.239 35.109 8.684 35.154 A 11.173 11.173 0 0 0 8.85 35.169 Q 9.863 35.254 11.157 35.254 A 12.257 12.257 0 0 0 15.674 33.96 A 14.496 14.496 0 0 0 20.864 29.48 A 18.36 18.36 0 0 0 21.948 27.808 Q 24.219 23.78 24.219 19.092 Q 24.219 14.136 21.484 10.059 A 16.139 16.139 0 0 0 14.722 4.273 A 15.713 15.713 0 0 0 10.937 3.223 A 5.633 5.633 0 0 0 10.679 3.19 Q 10.446 3.165 10.156 3.15 A 19.222 19.222 0 0 0 9.743 3.132 Q 9.548 3.126 9.375 3.125 A 11.287 11.287 0 0 0 9.326 3.125 A 9.646 9.646 0 0 0 7.887 3.229 A 7.932 7.932 0 0 0 6.982 3.418 A 10.815 10.815 0 0 1 9.724 4.598 Z"/></g></svg><svg x="209.48175417458367" y="162.89836955393045"  width="15" height="15" viewBox="0 0 38.111 38.234" xmlns="http://www.w3.org/2000/svg"><g id="svgGroup" stroke-linecap="round" fill-rule="nonzero" font-size="9pt" stroke="#4A5859" stroke-width="0.025mm" fill="#4A5859" style="stroke:#4A5859;stroke-width:0.025mm;fill:#4A5859"><path d="M 19.263 16.138 L 27.515 7.886 A 12.634 12.634 0 0 0 24.5 6.14 A 13.32 13.32 0 0 0 21.123 5.277 A 14.766 14.766 0 0 0 21.094 5.273 L 38.111 0 L 32.96 17.139 A 12.092 12.092 0 0 0 31.959 13.428 A 13.03 13.03 0 0 0 30.713 11.22 A 14.964 14.964 0 0 0 30.347 10.718 L 22.095 18.97 Q 24.341 22.437 24.341 26.05 A 11.696 11.696 0 0 1 20.864 34.544 A 14.314 14.314 0 0 1 20.753 34.656 A 11.946 11.946 0 0 1 15.722 37.727 A 12.312 12.312 0 0 1 12.159 38.232 Q 6.422 38.232 2.784 33.789 A 11.805 11.805 0 0 1 0.001 26.05 Q 0.001 21.24 3.37 17.676 A 11.616 11.616 0 0 1 11.795 13.896 A 14.064 14.064 0 0 1 12.159 13.892 A 12.391 12.391 0 0 1 18.522 15.673 A 15.251 15.251 0 0 1 19.263 16.138 Z M 20.338 26.05 A 7.834 7.834 0 0 0 17.996 20.401 A 10.029 10.029 0 0 0 17.921 20.325 A 8.165 8.165 0 0 0 15 18.394 A 7.997 7.997 0 0 0 12.159 17.896 A 7.813 7.813 0 0 0 6.485 20.238 A 9.74 9.74 0 0 0 6.409 20.313 A 8.188 8.188 0 0 0 4.498 23.226 A 7.988 7.988 0 0 0 4.005 26.05 Q 4.005 29.199 6.129 31.543 A 7.686 7.686 0 0 0 11.709 34.218 A 9.551 9.551 0 0 0 12.159 34.229 A 7.842 7.842 0 0 0 17.857 31.886 A 9.665 9.665 0 0 0 17.933 31.812 A 8.122 8.122 0 0 0 19.91 28.707 A 8.122 8.122 0 0 0 20.338 26.05 Z"/></g></svg><svg x="237.44414017130393" y="145.36625263126427"  width="10" height="20" viewBox="0 0 21.34 40.674" xmlns="http://www.w3.org/2000/svg"><g id="svgGroup" stroke-linecap="round" fill-rule="nonzero" font-size="9pt" stroke="#4A5859" stroke-width="0.025mm" fill="#4A5859" style="stroke:#4A5859;stroke-width:0.025mm;fill:#4A5859"><path d="M 2.223 35.278 L 2.223 31.738 L 8.644 31.738 L 8.644 26.123 A 10.274 10.274 0 0 1 2.492 22.485 A 12.758 12.758 0 0 1 1.44 21.043 A 9.505 9.505 0 0 1 0.661 19.507 A 9.48 9.48 0 0 1 0.095 17.237 A 12.224 12.224 0 0 1 0.001 15.698 A 10.173 10.173 0 0 1 3.177 8.148 A 12.846 12.846 0 0 1 3.615 7.739 A 9.533 9.533 0 0 1 1.027 4.321 A 10.152 10.152 0 0 1 0.082 1.23 A 9.356 9.356 0 0 1 0.001 0 L 4.03 0 Q 4.03 1.66 4.786 3.101 A 6.092 6.092 0 0 0 6.935 5.737 A 10.538 10.538 0 0 1 10.414 5.081 A 12.007 12.007 0 0 1 10.695 5.078 A 10.551 10.551 0 0 1 14.423 5.735 A 10.636 10.636 0 0 1 14.43 5.737 A 6.308 6.308 0 0 0 15.844 4.317 A 8.487 8.487 0 0 0 16.578 3.101 A 7.166 7.166 0 0 0 17.079 1.81 A 6.56 6.56 0 0 0 17.128 1.624 A 6.289 6.289 0 0 0 17.285 0.64 A 7.754 7.754 0 0 0 17.311 0 L 21.339 0 A 9.693 9.693 0 0 1 20.363 4.236 A 11.067 11.067 0 0 1 17.75 7.739 Q 21.339 10.938 21.339 15.698 A 10.243 10.243 0 0 1 18.287 23.12 A 12.585 12.585 0 0 1 18.263 23.145 Q 15.968 25.464 12.721 26.123 L 12.721 31.738 L 19.118 31.738 L 19.118 35.278 L 12.721 35.278 L 12.721 40.674 L 8.644 40.674 L 8.644 35.278 L 2.223 35.278 Z M 10.67 9.058 A 6.404 6.404 0 0 0 5.969 10.997 A 7.827 7.827 0 0 0 5.836 11.133 A 6.502 6.502 0 0 0 3.981 15.723 A 6.518 6.518 0 0 0 5.739 20.215 A 6.304 6.304 0 0 0 10.302 22.379 A 7.912 7.912 0 0 0 10.67 22.388 A 6.555 6.555 0 0 0 13.527 21.774 A 6.53 6.53 0 0 0 15.578 20.215 Q 17.311 18.335 17.311 15.723 A 6.257 6.257 0 0 0 15.578 11.255 A 6.549 6.549 0 0 0 13.169 9.524 A 6.571 6.571 0 0 0 10.67 9.058 Z"/></g></svg><svg x="286.9106116410277" y="126.50171700065076"  width="15" height="19.5" viewBox="0 0 31.128 38.184" xmlns="http://www.w3.org/2000/svg"><g id="svgGroup" stroke-linecap="round" fill-rule="nonzero" font-size="9pt" stroke="#4A5859" stroke-width="0.025mm" fill="#4A5859" style="stroke:#4A5859;stroke-width:0.025mm;fill:#4A5859"><path d="M 9.18 24.17 L 18.213 24.17 L 18.213 17.944 L 22.314 13.818 L 22.314 24.17 L 31.128 24.17 L 31.128 27.637 L 22.314 27.637 L 22.314 38.184 L 18.213 38.184 L 18.213 27.637 L 0 27.637 Q 0.45 27.232 1.5 26.268 A 744.604 744.604 0 0 0 1.685 26.099 Q 3.394 24.536 4.248 23.584 A 19.796 19.796 0 0 0 7.471 18.823 A 21.95 21.95 0 0 0 9.011 14.653 A 17.038 17.038 0 0 0 9.546 10.474 A 12.616 12.616 0 0 0 9.183 7.506 A 14.104 14.104 0 0 0 9.119 7.251 Q 8.691 5.615 7.544 4.346 Q 6.641 3.369 5.249 2.71 Q 3.857 2.124 2.49 2.124 A 8.212 8.212 0 0 0 1.882 2.145 Q 1.596 2.167 1.342 2.209 A 4.987 4.987 0 0 0 1.27 2.222 Q 0.869 2.295 0.359 2.476 A 10.094 10.094 0 0 0 0 2.612 Q 0.558 2.054 1.737 1.474 A 14.017 14.017 0 0 1 1.855 1.416 Q 2.539 1.099 3.052 0.891 A 18.542 18.542 0 0 1 3.546 0.699 A 14.215 14.215 0 0 1 4.004 0.537 Q 4.785 0.293 5.566 0.147 Q 6.296 0.01 6.897 0.001 A 5.629 5.629 0 0 1 6.982 0 Q 8.228 0 9.375 0.464 A 7.297 7.297 0 0 1 10.98 1.433 A 6.427 6.427 0 0 1 11.67 2.075 A 7.979 7.979 0 0 1 13.264 4.531 A 9.269 9.269 0 0 1 13.403 4.883 A 11.616 11.616 0 0 1 14.035 7.383 A 15.652 15.652 0 0 1 14.185 9.595 A 19.317 19.317 0 0 1 13.91 12.79 A 22.318 22.318 0 0 1 13.696 13.892 Q 13.354 15.454 12.817 17.017 A 25.934 25.934 0 0 1 12.032 19.017 A 31.435 31.435 0 0 1 11.45 20.264 Q 10.449 22.266 9.18 24.17 Z"/></g></svg><svg x="427.8901993186173" y="138.3187840582725"  width="13" height="19" viewBox="0 0 24.245 38.185" xmlns="http://www.w3.org/2000/svg"><g id="svgGroup" stroke-linecap="round" fill-rule="nonzero" font-size="9pt" stroke="#4A5859" stroke-width="0.025mm" fill="#4A5859" style="stroke:#4A5859;stroke-width:0.025mm;fill:#4A5859"><path d="M 3.858 32.204 L 3.858 28.737 L 10.133 28.737 L 10.133 24.074 A 11.883 11.883 0 0 1 2.919 19.935 A 11.679 11.679 0 0 1 0.001 12.111 A 11.638 11.638 0 0 1 3.455 3.678 A 14.334 14.334 0 0 1 3.566 3.566 A 11.672 11.672 0 0 1 11.979 0.002 A 13.965 13.965 0 0 1 12.135 0.001 A 11.648 11.648 0 0 1 20.581 3.443 A 14.168 14.168 0 0 1 20.692 3.554 A 11.651 11.651 0 0 1 24.243 11.955 A 14.009 14.009 0 0 1 24.244 12.111 Q 24.244 16.603 21.339 19.96 Q 18.434 23.317 14.137 24.049 L 14.137 28.737 L 20.387 28.737 L 20.387 32.204 L 14.137 32.204 L 14.137 38.185 L 10.133 38.185 L 10.133 32.204 L 3.858 32.204 Z M 12.135 3.981 A 7.75 7.75 0 0 0 6.397 6.359 A 9.476 9.476 0 0 0 6.129 6.642 Q 4.005 8.986 4.005 12.111 A 7.858 7.858 0 0 0 6.129 17.555 A 7.986 7.986 0 0 0 9.123 19.689 A 8.072 8.072 0 0 0 12.135 20.241 A 7.764 7.764 0 0 0 17.773 17.91 A 9.703 9.703 0 0 0 17.848 17.836 A 8.097 8.097 0 0 0 19.799 14.795 A 8.042 8.042 0 0 0 20.24 12.111 Q 20.24 8.742 17.86 6.361 A 7.797 7.797 0 0 0 12.239 3.981 A 9.336 9.336 0 0 0 12.135 3.981 Z"/></g></svg><svg x="157.93692752430363" y="216.49681121238478"  width="12" height="16" viewBox="0 0 34.937 48.34" xmlns="http://www.w3.org/2000/svg"><g id="svgGroup" stroke-linecap="round" fill-rule="nonzero" font-size="9pt" stroke="#4A5859" stroke-width="0.025mm" fill="#4A5859" style="stroke:#4A5859;stroke-width:0.025mm;fill:#4A5859"><path d="M 34.937 38.11 L 34.937 43.726 A 8.922 8.922 0 0 1 32.183 46.836 A 10.868 10.868 0 0 1 31.494 47.29 Q 30.591 47.803 29.7 48.071 A 6.27 6.27 0 0 1 27.881 48.34 Q 25.537 48.34 23.657 46.631 A 6.739 6.739 0 0 1 22.354 45.065 A 5.869 5.869 0 0 1 21.729 43.579 Q 21.434 42.604 21.434 41.44 A 9.376 9.376 0 0 1 21.436 41.26 Q 21.436 40.82 21.448 40.662 A 8.345 8.345 0 0 1 21.459 40.534 Q 21.464 40.477 21.47 40.415 A 15.843 15.843 0 0 1 21.484 40.283 A 22.934 22.934 0 0 1 22.07 36.987 L 22.949 33.374 A 15.302 15.302 0 0 0 23.42 30.328 A 13.903 13.903 0 0 0 23.438 29.639 A 10.982 10.982 0 0 0 23.363 28.396 Q 23.291 27.764 23.149 27.069 A 19.094 19.094 0 0 0 23.047 26.599 A 10.399 10.399 0 0 0 22.057 23.953 A 9.646 9.646 0 0 0 21.802 23.511 A 8.388 8.388 0 0 0 19.58 21.118 A 5.109 5.109 0 0 0 17.407 20.216 A 6.949 6.949 0 0 0 16.211 20.117 A 10.97 10.97 0 0 0 14.008 20.322 Q 12.749 20.58 11.832 21.166 A 4.862 4.862 0 0 0 9.961 23.389 L 9.961 38.184 L 6.201 38.184 L 6.201 10.107 L 0 10.107 L 0 6.616 L 6.201 6.616 L 6.201 0 L 9.961 0 L 9.961 6.616 L 16.162 6.616 L 16.162 10.107 L 9.961 10.107 L 9.961 18.311 A 8.567 8.567 0 0 1 14.12 16.495 A 11.626 11.626 0 0 1 15.942 16.357 Q 18.857 16.357 20.893 17.476 A 7.61 7.61 0 0 1 21.216 17.664 A 12.029 12.029 0 0 1 23.437 19.4 A 10.212 10.212 0 0 1 24.609 20.801 A 14.272 14.272 0 0 1 26.611 25.305 A 24.982 24.982 0 0 1 26.971 26.958 Q 27.112 27.74 27.174 28.429 A 11.402 11.402 0 0 1 27.222 29.443 A 15.984 15.984 0 0 1 26.55 34.021 Q 25.879 36.279 25.513 38.525 A 17.806 17.806 0 0 0 25.362 39.628 Q 25.293 40.303 25.293 40.894 A 8.269 8.269 0 0 0 25.345 41.836 A 6.723 6.723 0 0 0 25.439 42.432 Q 25.944 44.736 27.909 44.969 A 3.91 3.91 0 0 0 28.369 44.995 A 3.758 3.758 0 0 0 30.399 44.371 Q 30.991 43.997 31.565 43.399 A 10.066 10.066 0 0 0 32.446 42.334 Q 34.375 39.673 34.937 38.11 Z"/></g></svg><svg x="385.32428569305216" y="124.71946412549372"  width="12" height="17.6" viewBox="0 0 28.809 41.945" xmlns="http://www.w3.org/2000/svg"><g id="svgGroup" stroke-linecap="round" fill-rule="nonzero" font-size="9pt" stroke="#4A5859" stroke-width="0.025mm" fill="#4A5859" style="stroke:#4A5859;stroke-width:0.025mm;fill:#4A5859"><path d="M 6.738 9.009 L 12.402 9.009 L 12.402 4.321 L 16.406 4.321 L 16.406 9.009 L 22.07 9.009 A 16.945 16.945 0 0 1 22.133 7.521 A 14.595 14.595 0 0 1 22.192 6.97 A 13.641 13.641 0 0 1 22.273 6.429 Q 22.377 5.811 22.565 4.943 A 64.914 64.914 0 0 1 22.754 4.102 Q 23.193 2.197 24.121 0 L 28.809 0 A 40.019 40.019 0 0 0 28.18 1.364 A 29.9 29.9 0 0 0 27.661 2.625 A 19.622 19.622 0 0 0 26.962 4.842 A 21.667 21.667 0 0 0 26.88 5.176 Q 26.563 6.519 26.416 7.947 A 28.338 28.338 0 0 0 26.27 10.84 Q 26.27 13.696 26.892 16.406 A 22.736 22.736 0 0 0 28.809 21.655 L 24.097 21.655 A 55.397 55.397 0 0 1 23.755 20.798 Q 23.572 20.329 23.422 19.912 A 29.722 29.722 0 0 1 23.291 19.543 A 15.386 15.386 0 0 1 23.023 18.684 Q 22.856 18.094 22.705 17.407 Q 22.437 16.187 22.253 14.978 A 16.07 16.07 0 0 1 22.082 13.213 A 14.183 14.183 0 0 1 22.07 12.646 L 16.406 12.646 L 16.406 22.656 A 9.774 9.774 0 0 1 21.289 25.317 A 9.373 9.373 0 0 1 24.145 32.077 A 11.288 11.288 0 0 1 24.146 32.202 A 9.457 9.457 0 0 1 21.46 38.94 Q 18.506 41.943 14.404 41.943 A 9.417 9.417 0 0 1 7.409 39.004 A 11.841 11.841 0 0 1 7.031 38.599 A 9.465 9.465 0 0 1 4.663 32.202 A 9.371 9.371 0 0 1 7.431 25.407 A 11.378 11.378 0 0 1 7.52 25.317 A 9.864 9.864 0 0 1 12.402 22.656 L 12.402 12.646 L 6.738 12.646 A 14.089 14.089 0 0 1 6.543 14.966 A 31.757 31.757 0 0 1 6.281 16.342 A 40.348 40.348 0 0 1 6.018 17.493 A 63.549 63.549 0 0 1 5.858 18.137 Q 5.657 18.926 5.487 19.497 A 19.525 19.525 0 0 1 5.432 19.678 A 18.096 18.096 0 0 1 5.211 20.345 Q 5.106 20.642 4.982 20.969 A 36.094 36.094 0 0 1 4.712 21.655 L 0 21.655 A 24.47 24.47 0 0 0 0.794 19.845 A 27.799 27.799 0 0 0 1.038 19.202 A 24.201 24.201 0 0 0 1.831 16.577 Q 2.539 13.818 2.539 10.84 A 41.992 41.992 0 0 0 2.522 9.607 Q 2.504 8.999 2.468 8.465 A 21.609 21.609 0 0 0 2.417 7.849 A 15.524 15.524 0 0 0 2.228 6.528 Q 2.102 5.846 1.91 5.102 A 24.839 24.839 0 0 0 1.904 5.078 A 22.699 22.699 0 0 0 0.639 1.358 A 26.723 26.723 0 0 0 0 0 L 4.688 0 A 29.674 29.674 0 0 1 5.054 0.952 A 38.418 38.418 0 0 1 5.42 2.002 A 25.623 25.623 0 0 1 5.75 3.064 A 19.861 19.861 0 0 1 6.006 4.053 Q 6.372 5.566 6.555 6.702 A 14.466 14.466 0 0 1 6.738 9.009 Z M 14.404 26.465 A 5.508 5.508 0 0 0 10.392 28.097 A 6.591 6.591 0 0 0 10.339 28.149 A 5.542 5.542 0 0 0 8.667 32.165 A 6.689 6.689 0 0 0 8.667 32.202 A 5.516 5.516 0 0 0 10.059 35.962 A 5.611 5.611 0 0 0 12.171 37.539 A 5.738 5.738 0 0 0 14.404 37.964 A 5.621 5.621 0 0 0 18.486 36.251 A 7.287 7.287 0 0 0 18.555 36.182 A 5.556 5.556 0 0 0 20.142 32.202 A 5.569 5.569 0 0 0 18.476 28.181 A 6.97 6.97 0 0 0 18.469 28.174 A 5.464 5.464 0 0 0 14.516 26.466 A 6.629 6.629 0 0 0 14.404 26.465 Z"/></g></svg><svg x="420.0140908419777" y="135.06648574054137"  width="16" height="16" viewBox="0 0 38.306 38.94" xmlns="http://www.w3.org/2000/svg"><g id="svgGroup" stroke-linecap="round" fill-rule="nonzero" font-size="9pt" stroke="#4A5859" stroke-width="0.025mm" fill="#4A5859" style="stroke:#4A5859;stroke-width:0.025mm;fill:#4A5859"><path d="M 0 9.644 A 4.569 4.569 0 0 1 0.604 8.948 A 5.898 5.898 0 0 1 1.392 8.325 A 5.936 5.936 0 0 1 2.136 7.898 A 7.694 7.694 0 0 1 3.003 7.544 L 3.003 10.815 A 18.056 18.056 0 0 0 3.042 12.008 A 14.071 14.071 0 0 0 6.25 20.276 A 13.533 13.533 0 0 0 7.216 21.327 A 9.47 9.47 0 0 0 14.038 24.194 L 17.261 24.194 L 17.261 29.736 L 11.084 29.736 L 11.084 33.13 L 17.261 33.13 L 17.261 38.94 L 21.24 38.94 L 21.24 33.13 L 27.197 33.13 L 27.197 29.736 L 21.24 29.736 L 21.24 24.194 L 24.243 24.194 A 9.301 9.301 0 0 0 29.64 22.532 A 12.172 12.172 0 0 0 32.251 20.044 Q 35.303 16.162 35.303 10.815 L 35.303 7.568 A 8.065 8.065 0 0 1 36.001 7.849 A 6.437 6.437 0 0 1 37.012 8.423 Q 37.769 9.009 38.306 9.644 L 33.203 0 L 28.101 9.644 A 5.115 5.115 0 0 1 28.44 9.233 A 5.7 5.7 0 0 1 29.517 8.325 Q 30.225 7.861 31.152 7.544 L 31.152 10.986 Q 31.152 14.746 29.126 17.395 A 8.434 8.434 0 0 1 28.116 18.507 A 5.522 5.522 0 0 1 24.292 20.044 L 21.24 20.044 L 21.24 7.568 A 8.065 8.065 0 0 1 21.938 7.849 A 6.437 6.437 0 0 1 22.949 8.423 A 10.655 10.655 0 0 1 23.049 8.502 Q 23.393 8.777 23.677 9.052 A 6.346 6.346 0 0 1 24.219 9.644 L 19.141 0 L 14.038 9.644 A 5.559 5.559 0 0 1 15.417 8.337 A 5.994 5.994 0 0 1 15.839 8.079 A 6.662 6.662 0 0 1 17.261 7.495 L 17.261 20.044 L 14.014 20.044 Q 10.986 20.044 8.936 17.065 A 9.558 9.558 0 0 1 7.567 14.216 A 11.483 11.483 0 0 1 7.129 10.986 L 7.129 7.544 A 9.31 9.31 0 0 1 7.874 7.852 A 7.364 7.364 0 0 1 8.887 8.423 Q 9.644 9.009 10.181 9.644 L 5.078 0 L 0 9.644 Z"/></g></svg><svg x="551.94671705958" y="281.02043466024577"  width="15" height="17.04" viewBox="0 0 38.062 43.238" xmlns="http://www.w3.org/2000/svg"><g id="svgGroup" stroke-linecap="round" fill-rule="nonzero" font-size="9pt" stroke="#4A5859" stroke-width="0.025mm" fill="#4A5859" style="stroke:#4A5859;stroke-width:0.025mm;fill:#4A5859"><path d="M 10.791 36.67 L 10.791 33.204 L 17.041 33.204 L 17.041 26.954 A 18.604 18.604 0 0 1 5.933 21.802 A 19.932 19.932 0 0 1 2.381 17.477 A 18.356 18.356 0 0 1 1.709 16.26 A 15.842 15.842 0 0 1 0.184 11.645 A 14.379 14.379 0 0 1 0 9.351 L 4.053 6.739 L 4.004 8.008 A 14.839 14.839 0 0 0 4.59 12.226 A 13.482 13.482 0 0 0 5.139 13.746 Q 6.274 16.382 8.545 18.653 A 15.929 15.929 0 0 0 11.685 21.115 A 14.081 14.081 0 0 0 13.354 21.961 A 14.067 14.067 0 0 0 17.843 23.026 A 16.757 16.757 0 0 0 19.092 23.072 A 14.751 14.751 0 0 0 24.622 22.022 Q 27.246 20.972 29.443 18.97 A 14.011 14.011 0 0 0 32.947 14.112 A 14.752 14.752 0 0 0 34.113 9.235 A 17.463 17.463 0 0 0 34.155 8.008 L 34.106 6.739 L 38.062 9.278 Q 38.037 13.257 36.45 16.138 Q 34.961 19.19 32.178 21.802 Q 27.466 26.246 21.045 26.954 L 21.045 33.204 L 27.319 33.204 L 27.319 36.67 L 21.045 36.67 L 21.045 43.238 L 17.041 43.238 L 17.041 36.67 L 10.791 36.67 Z M 24.669 2.295 A 9.633 9.633 0 0 1 24.744 2.369 A 7.757 7.757 0 0 1 27.123 7.977 A 9.335 9.335 0 0 1 27.124 8.082 A 7.762 7.762 0 0 1 24.902 13.648 Q 22.461 16.163 19.067 16.163 A 7.785 7.785 0 0 1 13.404 13.856 A 9.376 9.376 0 0 1 13.33 13.782 Q 10.962 11.402 10.962 8.082 Q 10.962 4.835 13.208 2.515 A 7.756 7.756 0 0 1 18.838 0.003 A 9.414 9.414 0 0 1 19.067 0.001 A 7.756 7.756 0 0 1 24.669 2.295 Z M 19.067 3.492 Q 17.09 3.492 15.784 4.883 A 4.87 4.87 0 0 0 14.794 6.404 A 4.464 4.464 0 0 0 14.478 8.082 A 4.418 4.418 0 0 0 15.779 11.287 A 5.326 5.326 0 0 0 15.82 11.329 A 4.418 4.418 0 0 0 19.008 12.671 A 5.368 5.368 0 0 0 19.067 12.671 A 4.313 4.313 0 0 0 22.236 11.363 A 5.309 5.309 0 0 0 22.363 11.231 Q 23.633 9.913 23.633 8.082 A 4.408 4.408 0 0 0 22.32 4.889 A 5.487 5.487 0 0 0 22.278 4.847 A 4.609 4.609 0 0 0 20.697 3.79 A 4.426 4.426 0 0 0 19.067 3.492 Z"/></g></svg><svg x="192.6436448468706" y="176.6411783955798"  width="12" height="18.16" viewBox="0 0 26.832 40.699" xmlns="http://www.w3.org/2000/svg"><g id="svgGroup" stroke-linecap="round" fill-rule="nonzero" font-size="9pt" stroke="#4A5859" stroke-width="0.025mm" fill="#4A5859" style="stroke:#4A5859;stroke-width:0.025mm;fill:#4A5859"><path d="M 8.984 31.226 L 8.984 23.072 L 12.598 23.072 A 10.13 10.13 0 0 0 15.301 22.72 A 9.078 9.078 0 0 0 16.431 22.328 A 10.278 10.278 0 0 0 18.844 20.872 A 12.45 12.45 0 0 0 19.727 20.094 Q 22.656 17.262 22.656 13.307 A 9.036 9.036 0 0 0 19.862 6.681 A 11.726 11.726 0 0 0 19.58 6.41 A 10.402 10.402 0 0 0 12.231 3.541 Q 8.74 3.541 5.981 5.494 A 10.315 10.315 0 0 0 3.497 7.937 A 9.256 9.256 0 0 0 2.246 10.426 L 0 11.305 A 12.998 12.998 0 0 1 5.326 2.644 A 16.357 16.357 0 0 1 5.469 2.54 Q 8.936 0.001 13.33 0.001 Q 18.457 0.001 22.388 3.517 A 13.323 13.323 0 0 1 25.919 8.499 A 13.463 13.463 0 0 1 26.831 13.502 A 13.002 13.002 0 0 1 22.912 22.988 A 16.086 16.086 0 0 1 22.754 23.145 A 13.203 13.203 0 0 1 19.251 25.654 A 12.374 12.374 0 0 1 18.347 26.051 Q 15.918 27.003 13.086 27.003 L 13.086 31.226 L 18.384 31.226 L 18.384 34.742 L 13.086 34.742 L 13.086 40.699 L 8.984 40.699 L 8.984 34.742 L 3.735 34.742 L 3.735 31.226 L 8.984 31.226 Z"/></g></svg><svg x="127.15887460027176" y="284.33443309749595"  width="15" height="16.022" viewBox="0 0 38.11 40.698" xmlns="http://www.w3.org/2000/svg"><g id="svgGroup" stroke-linecap="round" fill-rule="nonzero" font-size="9pt" stroke="#4A5859" stroke-width="0.025mm" fill="#4A5859" style="stroke:#4A5859;stroke-width:0.025mm;fill:#4A5859"><path d="M 0 29.81 L 0 25.562 L 10.889 25.562 L 19.067 34.717 L 27.075 25.562 L 38.11 25.562 L 38.11 29.81 L 28.955 29.81 L 19.043 40.698 L 9.18 29.81 L 0 29.81 Z M 19.067 26.392 L 6.982 13.037 L 12.451 13.037 L 19.067 20.386 L 25.439 13.037 L 31.128 13.037 L 19.067 26.392 Z M 19.067 5.762 L 19.067 0 L 22.363 5.518 L 19.067 9.204 L 19.067 14.868 L 15.747 9.204 L 19.067 5.762 Z"/></g></svg><svg x="480.91452481724116" y="508.94702334025044"  width="15" height="20.58" viewBox="0 0 29.663 40.698" xmlns="http://www.w3.org/2000/svg"><g id="svgGroup" stroke-linecap="round" fill-rule="nonzero" font-size="9pt" stroke="#4A5859" stroke-width="0.025mm" fill="#4A5859" style="stroke:#4A5859;stroke-width:0.025mm;fill:#4A5859"><path d="M 22.29 31.982 L 22.29 35.474 L 16.772 35.474 L 16.772 40.698 L 12.866 40.698 L 12.866 35.474 L 7.349 35.474 L 7.349 31.982 L 12.866 31.982 L 12.866 19.263 L 5.566 26.538 L 3.101 24.072 L 10.596 16.577 L 0 16.577 L 0 13.062 L 10.596 13.062 L 3.101 5.566 L 5.566 3.101 L 13.062 10.596 L 13.062 0 L 16.577 0 L 16.577 10.596 L 24.072 3.101 L 26.538 5.566 L 19.043 13.062 L 29.663 13.062 L 29.663 16.577 L 19.043 16.577 L 26.538 24.072 L 24.072 26.538 L 16.772 19.263 L 16.772 31.982 L 22.29 31.982 Z"/></g></svg><svg x="306.5703091028276" y="122.55470626725554"  width="12" height="18.7016" viewBox="0 0 26.099 40.674" xmlns="http://www.w3.org/2000/svg"><g id="svgGroup" stroke-linecap="round" fill-rule="nonzero" font-size="9pt" stroke="#4A5859" stroke-width="0.025mm" fill="#4A5859" style="stroke:#4A5859;stroke-width:0.025mm;fill:#4A5859"><path d="M 21.313 31.421 L 21.313 34.863 L 15.112 34.863 L 15.112 40.674 L 11.011 40.674 L 11.011 34.863 L 4.81 34.863 L 4.81 31.421 L 11.011 31.421 L 11.011 25.586 L 0 13.77 L 12.842 0 L 26.099 13.794 L 15.112 25.513 L 15.112 31.421 L 21.313 31.421 Z M 5.859 13.818 L 13.037 21.753 L 20.264 13.818 L 12.939 6.006 L 5.859 13.818 Z"/></g></svg><svg x="559.5271002407762" y="354.41708222478474"  width="13" height="21.5989" viewBox="0 0 26.025 43.239" xmlns="http://www.w3.org/2000/svg"><g id="svgGroup" stroke-linecap="round" fill-rule="nonzero" font-size="9pt" stroke="#4A5859" stroke-width="0.025mm" fill="#4A5859" style="stroke:#4A5859;stroke-width:0.025mm;fill:#4A5859"><path d="M 7.3 26.099 L 11.011 26.099 L 11.011 0 L 15.015 0 L 15.015 8.179 L 23.193 0 L 26.001 2.832 L 18.677 10.156 L 26.025 17.505 L 23.193 20.337 L 15.015 12.158 L 15.015 26.099 L 18.701 26.099 A 6.198 6.198 0 0 1 22.966 27.798 A 9.421 9.421 0 0 1 24.097 29.028 A 9.008 9.008 0 0 1 26.001 34.644 A 10.28 10.28 0 0 1 25.46 38.022 A 9.214 9.214 0 0 1 24.292 40.308 A 7.038 7.038 0 0 1 22.297 42.258 Q 20.857 43.168 18.987 43.232 A 8.341 8.341 0 0 1 18.701 43.237 L 7.3 43.237 A 6.41 6.41 0 0 1 2.289 41.01 A 8.724 8.724 0 0 1 1.514 39.99 A 9.676 9.676 0 0 1 0.001 34.829 A 11.611 11.611 0 0 1 0 34.644 A 9.241 9.241 0 0 1 1.465 29.663 A 8.863 8.863 0 0 1 3.02 27.745 A 6.142 6.142 0 0 1 7.3 26.099 Z M 17.92 30.103 L 8.081 30.103 Q 6.421 30.103 5.212 31.201 A 3.935 3.935 0 0 0 4.43 32.158 A 3.233 3.233 0 0 0 4.004 33.789 L 4.004 35.571 A 3.314 3.314 0 0 0 4.963 37.914 A 4.551 4.551 0 0 0 5.212 38.159 A 4.121 4.121 0 0 0 8.081 39.258 L 17.92 39.258 A 4.4 4.4 0 0 0 19.52 38.975 A 4.023 4.023 0 0 0 20.813 38.159 A 3.896 3.896 0 0 0 21.601 37.163 A 3.287 3.287 0 0 0 21.997 35.571 L 21.997 33.789 Q 21.997 32.349 20.801 31.177 A 4.162 4.162 0 0 0 17.92 30.103 Z"/></g></svg><svg x="498.90681583167304" y="492.14671827627024"  width="9.6" height="20.68344" viewBox="0 0 20.068 43.237" xmlns="http://www.w3.org/2000/svg"><g id="svgGroup" stroke-linecap="round" fill-rule="nonzero" font-size="9pt" stroke="#4A5859" stroke-width="0.025mm" fill="#4A5859" style="stroke:#4A5859;stroke-width:0.025mm;fill:#4A5859"><path d="M 12.036 28.98 L 12.036 34.326 L 18.311 34.326 L 18.311 37.818 L 12.036 37.818 L 12.036 43.237 L 8.032 43.237 L 8.032 37.818 L 1.758 37.818 L 1.758 34.326 L 8.032 34.326 L 8.032 27.735 Q 4.272 25.781 2.173 22.266 A 20.637 20.637 0 0 1 1.355 20.773 Q 0.868 19.786 0.586 18.897 A 12.335 12.335 0 0 1 0.147 16.866 Q 0.018 15.91 0.002 14.836 A 20.686 20.686 0 0 1 0 14.527 A 14.255 14.255 0 0 1 0.525 10.759 A 17.593 17.593 0 0 1 1.111 8.997 A 14.944 14.944 0 0 1 2.984 5.555 A 13.281 13.281 0 0 1 4.175 4.151 A 13.382 13.382 0 0 1 13.858 0.004 A 17.255 17.255 0 0 1 14.233 0 A 16.841 16.841 0 0 1 17.089 0.231 A 12.284 12.284 0 0 1 20.068 1.123 Q 16.26 3.174 14.038 6.665 A 14.542 14.542 0 0 0 11.743 14.527 Q 11.743 18.799 14.001 22.339 A 15.937 15.937 0 0 0 20.068 27.905 A 13.789 13.789 0 0 1 14.233 29.199 A 7.456 7.456 0 0 1 13.754 29.182 Q 13.231 29.148 12.502 29.047 A 32.806 32.806 0 0 1 12.036 28.98 Z"/></g></svg><svg x="408.0205312225936" y="549.2204754133691"  width="15" height="15.7123" viewBox="0 0 38.063 39.87" xmlns="http://www.w3.org/2000/svg"><g id="svgGroup" stroke-linecap="round" fill-rule="nonzero" font-size="9pt" stroke="#4A5859" stroke-width="0.025mm" fill="#4A5859" style="stroke:#4A5859;stroke-width:0.025mm;fill:#4A5859"><path d="M 14.624 32.594 Q 14.624 35.597 12.476 37.733 A 7.067 7.067 0 0 1 7.394 39.869 A 8.522 8.522 0 0 1 7.3 39.869 A 7.094 7.094 0 0 1 2.417 37.989 A 6.821 6.821 0 0 1 0.011 33.023 A 8.559 8.559 0 0 1 0 32.594 Q 0 30.323 1.331 28.407 A 7.186 7.186 0 0 1 4.956 25.685 Q 2.051 21.485 2.051 16.481 A 15.7 15.7 0 0 1 6.47 5.421 Q 8.887 2.858 12.012 1.466 Q 15.308 0.001 19.043 0.001 A 16.822 16.822 0 0 1 29.834 3.761 Q 32.69 6.056 34.363 9.376 A 15.576 15.576 0 0 1 36.035 16.481 A 15.762 15.762 0 0 1 33.13 25.685 A 7.268 7.268 0 0 1 36.466 28.088 A 8.842 8.842 0 0 1 36.646 28.321 A 6.984 6.984 0 0 1 38.062 32.594 Q 38.062 35.719 35.791 37.892 A 7.078 7.078 0 0 1 30.762 39.869 A 7.182 7.182 0 0 1 27.335 39.052 A 7.383 7.383 0 0 1 25.61 37.77 A 8.17 8.17 0 0 1 24.483 36.339 A 6.988 6.988 0 0 1 23.999 35.401 A 6.837 6.837 0 0 1 23.496 33.346 A 8.273 8.273 0 0 1 23.462 32.594 A 7.157 7.157 0 0 1 24.365 29.127 A 7.455 7.455 0 0 1 25.608 27.433 A 6.483 6.483 0 0 1 26.709 26.539 A 12.599 12.599 0 0 0 30.481 22.193 Q 31.909 19.532 31.909 16.481 A 11.705 11.705 0 0 0 28.228 7.753 A 14.739 14.739 0 0 0 27.686 7.252 A 12.665 12.665 0 0 0 19.043 3.981 A 12.938 12.938 0 0 0 13.529 5.136 A 12.739 12.739 0 0 0 9.522 8.107 Q 6.152 11.695 6.152 16.481 Q 6.152 19.606 7.617 22.267 A 12.777 12.777 0 0 0 11.523 26.637 A 7.427 7.427 0 0 1 12.537 27.528 A 9.266 9.266 0 0 1 13.098 28.178 A 11.684 11.684 0 0 1 13.477 28.688 A 7.15 7.15 0 0 1 14.624 32.594 Z M 30.762 29.444 A 3.174 3.174 0 0 0 29.406 29.73 A 3.124 3.124 0 0 0 28.528 30.348 A 3.019 3.019 0 0 0 27.613 32.542 A 3.902 3.902 0 0 0 27.612 32.594 A 3.056 3.056 0 0 0 28.511 34.811 A 3.667 3.667 0 0 0 28.54 34.84 Q 29.468 35.768 30.762 35.768 A 3.046 3.046 0 0 0 32.966 34.857 A 3.833 3.833 0 0 0 32.996 34.828 A 3.181 3.181 0 0 0 33.743 33.694 A 3.102 3.102 0 0 0 33.936 32.594 A 3.064 3.064 0 0 0 33.02 30.384 A 3.02 3.02 0 0 0 30.824 29.445 A 3.794 3.794 0 0 0 30.762 29.444 Z M 7.3 29.444 Q 5.981 29.444 5.066 30.397 A 3.331 3.331 0 0 0 4.387 31.405 A 3.014 3.014 0 0 0 4.15 32.594 Q 4.15 33.888 5.078 34.828 A 3.115 3.115 0 0 0 6.238 35.588 A 3.091 3.091 0 0 0 7.3 35.768 A 3.056 3.056 0 0 0 9.517 34.869 A 3.667 3.667 0 0 0 9.546 34.84 A 3.055 3.055 0 0 0 10.473 32.635 A 3.723 3.723 0 0 0 10.474 32.594 A 2.995 2.995 0 0 0 9.577 30.403 A 3.608 3.608 0 0 0 9.534 30.36 Q 8.594 29.444 7.3 29.444 Z"/></g></svg><svg x="408.09542563761903" y="549.1961113578154"  width="15" height="15.7123" viewBox="0 0 38.063 39.87" xmlns="http://www.w3.org/2000/svg"><g id="svgGroup" stroke-linecap="round" fill-rule="nonzero" font-size="9pt" stroke="#4A5859" stroke-width="0.025mm" fill="#4A5859" style="stroke:#4A5859;stroke-width:0.025mm;fill:#4A5859"><path d="M 12.554 37.666 A 8.541 8.541 0 0 1 12.488 37.733 A 7.026 7.026 0 0 1 7.419 39.869 A 8.521 8.521 0 0 1 7.324 39.869 A 7.011 7.011 0 0 1 2.417 37.989 A 6.821 6.821 0 0 1 0.011 33.023 A 8.559 8.559 0 0 1 0 32.594 Q 0 30.323 1.331 28.407 A 7.186 7.186 0 0 1 4.956 25.685 Q 2.051 21.485 2.051 16.481 A 15.7 15.7 0 0 1 6.47 5.421 Q 8.887 2.858 12.012 1.466 Q 15.308 0.001 19.043 0.001 A 16.822 16.822 0 0 1 29.834 3.761 Q 32.69 6.056 34.363 9.376 A 15.576 15.576 0 0 1 36.035 16.481 A 15.762 15.762 0 0 1 33.13 25.685 A 7.268 7.268 0 0 1 36.466 28.088 A 8.842 8.842 0 0 1 36.646 28.321 A 6.984 6.984 0 0 1 38.062 32.594 Q 38.062 35.719 35.791 37.892 A 7.078 7.078 0 0 1 30.762 39.869 A 7.053 7.053 0 0 1 25.656 37.766 A 8.8 8.8 0 0 1 25.623 37.733 A 7.102 7.102 0 0 1 23.792 34.808 A 7.289 7.289 0 0 1 23.462 32.594 A 7.157 7.157 0 0 1 24.365 29.127 A 7.455 7.455 0 0 1 25.608 27.433 A 6.483 6.483 0 0 1 26.709 26.539 A 12.599 12.599 0 0 0 30.481 22.193 Q 31.909 19.532 31.909 16.481 A 11.705 11.705 0 0 0 28.228 7.753 A 14.739 14.739 0 0 0 27.686 7.252 A 12.665 12.665 0 0 0 19.043 3.981 A 13.022 13.022 0 0 0 13.584 5.104 A 12.719 12.719 0 0 0 9.522 8.082 Q 6.177 11.695 6.177 16.481 A 12 12 0 0 0 7.136 21.283 A 11.628 11.628 0 0 0 7.629 22.291 Q 9.082 24.928 11.523 26.637 A 7.427 7.427 0 0 1 12.537 27.528 A 9.266 9.266 0 0 1 13.098 28.178 A 11.684 11.684 0 0 1 13.477 28.688 A 7.15 7.15 0 0 1 14.624 32.594 A 6.997 6.997 0 0 1 12.554 37.666 Z M 30.762 29.444 A 3.174 3.174 0 0 0 29.406 29.73 A 3.124 3.124 0 0 0 28.528 30.348 A 3.019 3.019 0 0 0 27.613 32.542 A 3.902 3.902 0 0 0 27.612 32.594 A 3.128 3.128 0 0 0 27.918 33.984 A 3.135 3.135 0 0 0 28.528 34.828 A 3.034 3.034 0 0 0 30.721 35.743 A 3.769 3.769 0 0 0 30.762 35.743 A 3.211 3.211 0 0 0 33.008 34.84 A 3.423 3.423 0 0 0 33.7 33.799 A 3.101 3.101 0 0 0 33.936 32.594 A 3.026 3.026 0 0 0 33.037 30.401 A 3.735 3.735 0 0 0 33.008 30.372 A 3.055 3.055 0 0 0 30.803 29.445 A 3.723 3.723 0 0 0 30.762 29.444 Z M 7.324 29.444 A 3.108 3.108 0 0 0 5.957 29.742 A 3.102 3.102 0 0 0 5.066 30.397 A 3.331 3.331 0 0 0 4.387 31.405 A 3.014 3.014 0 0 0 4.15 32.594 A 3.006 3.006 0 0 0 5.058 34.783 A 3.761 3.761 0 0 0 5.09 34.816 Q 6.03 35.743 7.324 35.743 A 3.128 3.128 0 0 0 8.714 35.437 A 3.135 3.135 0 0 0 9.558 34.828 A 3.034 3.034 0 0 0 10.473 32.635 A 3.769 3.769 0 0 0 10.474 32.594 A 2.995 2.995 0 0 0 9.577 30.403 A 3.608 3.608 0 0 0 9.534 30.36 A 3.064 3.064 0 0 0 7.324 29.444 Z M 26.758 14.064 L 20.752 14.064 L 20.752 25.27 L 17.334 25.27 L 17.334 14.064 L 11.304 14.064 L 11.304 10.646 L 26.758 10.646 L 26.758 14.064 Z"/></g></svg><svg x="560.0" y="339.99999999999994"  width="22" height="8.6931" viewBox="0 0 34.699 13.711" xmlns="http://www.w3.org/2000/svg"><g id="svgGroup" stroke-linecap="round" fill-rule="nonzero" font-size="9pt" stroke="#4A5859" stroke-width="0.3mm" fill="#4A5859" style="stroke:#4A5859;stroke-width:0.3mm;fill:#4A5859"><path d="M 34.427 11.461 L 34.699 11.733 A 6.335 6.335 0 0 1 32.555 13.188 A 6.812 6.812 0 0 1 30.331 13.696 A 8.023 8.023 0 0 1 29.83 13.711 A 7.405 7.405 0 0 1 28.002 13.492 A 6.533 6.533 0 0 1 27.123 13.201 Q 25.884 12.692 24.97 11.769 A 6.467 6.467 0 0 1 23.555 9.593 A 7.067 7.067 0 0 1 23.078 7.494 A 8.383 8.383 0 0 1 23.054 6.856 Q 23.054 5.37 23.555 4.118 A 6.467 6.467 0 0 1 24.97 1.942 Q 25.884 1.02 27.123 0.51 A 6.857 6.857 0 0 1 29.288 0.018 A 8.103 8.103 0 0 1 29.83 0 A 7.297 7.297 0 0 1 31.668 0.225 A 6.449 6.449 0 0 1 32.55 0.523 Q 33.794 1.046 34.699 1.969 L 34.427 2.25 A 6.025 6.025 0 0 0 32.396 0.866 A 6.387 6.387 0 0 0 30.338 0.387 A 7.537 7.537 0 0 0 29.821 0.369 A 6.902 6.902 0 0 0 28.103 0.577 A 6.099 6.099 0 0 0 27.277 0.853 A 6.037 6.037 0 0 0 25.255 2.211 Q 24.398 3.085 23.924 4.267 A 6.654 6.654 0 0 0 23.472 6.251 A 7.924 7.924 0 0 0 23.449 6.856 A 7.283 7.283 0 0 0 23.644 8.565 A 6.335 6.335 0 0 0 23.924 9.444 A 6.209 6.209 0 0 0 25.255 11.501 A 6.037 6.037 0 0 0 27.277 12.858 A 6.396 6.396 0 0 0 29.311 13.325 A 7.552 7.552 0 0 0 29.821 13.342 A 6.813 6.813 0 0 0 31.6 13.116 A 6.055 6.055 0 0 0 32.396 12.841 A 6.144 6.144 0 0 0 34.427 11.461 Z M 12.981 12.296 L 13.201 11.988 A 6.255 6.255 0 0 0 14.309 12.731 A 5.341 5.341 0 0 0 15.517 13.188 Q 16.146 13.342 16.796 13.342 A 4.934 4.934 0 0 0 17.832 13.238 A 3.909 3.909 0 0 0 18.743 12.924 A 3.432 3.432 0 0 0 19.659 12.279 A 3.118 3.118 0 0 0 20.07 11.773 A 2.96 2.96 0 0 0 20.543 10.295 A 3.629 3.629 0 0 0 20.549 10.09 Q 20.549 9.147 20.105 8.534 A 2.066 2.066 0 0 0 20.048 8.46 A 3.92 3.92 0 0 0 19.093 7.606 A 4.682 4.682 0 0 0 18.765 7.414 A 19.348 19.348 0 0 0 17.121 6.636 Q 16.479 6.363 15.864 6.065 A 6.247 6.247 0 0 1 14.975 5.541 A 5.586 5.586 0 0 1 14.752 5.375 A 2.973 2.973 0 0 1 13.966 4.447 A 2.329 2.329 0 0 1 13.731 3.775 Q 13.676 3.486 13.676 3.155 A 3.217 3.217 0 0 1 13.807 2.221 A 2.764 2.764 0 0 1 14.142 1.503 A 3.025 3.025 0 0 1 15.218 0.513 A 3.697 3.697 0 0 1 15.447 0.396 A 4.088 4.088 0 0 1 16.595 0.056 A 5.372 5.372 0 0 1 17.385 0 Q 18.114 0 18.804 0.18 A 5.184 5.184 0 0 1 20.101 0.712 L 19.898 1.055 Q 19.292 0.721 18.642 0.545 A 4.967 4.967 0 0 0 17.341 0.369 A 4.439 4.439 0 0 0 16.452 0.454 A 3.447 3.447 0 0 0 15.649 0.721 A 2.959 2.959 0 0 0 14.837 1.285 A 2.709 2.709 0 0 0 14.493 1.701 A 2.494 2.494 0 0 0 14.079 2.939 A 3.09 3.09 0 0 0 14.071 3.155 A 2.747 2.747 0 0 0 14.146 3.813 A 1.991 1.991 0 0 0 14.542 4.614 A 3.678 3.678 0 0 0 15.337 5.329 A 4.542 4.542 0 0 0 15.754 5.577 A 20.815 20.815 0 0 0 17.118 6.231 A 23.039 23.039 0 0 0 17.323 6.319 A 24.139 24.139 0 0 1 18.633 6.917 A 6.469 6.469 0 0 1 19.656 7.542 A 5.906 5.906 0 0 1 19.797 7.651 A 3.196 3.196 0 0 1 20.632 8.653 A 2.535 2.535 0 0 1 20.876 9.345 Q 20.944 9.681 20.944 10.072 A 3.645 3.645 0 0 1 20.769 11.218 A 3.236 3.236 0 0 1 20.417 11.958 A 3.594 3.594 0 0 1 19.048 13.201 A 4.27 4.27 0 0 1 18.962 13.245 Q 18.035 13.711 16.831 13.711 A 5.81 5.81 0 0 1 14.805 13.346 A 6.287 6.287 0 0 1 12.981 12.296 Z M 3.278 13.447 L 0 13.447 L 0 0.264 L 3.278 0.264 A 13.037 13.037 0 0 1 5.158 0.392 Q 6.163 0.539 7.012 0.853 A 7.462 7.462 0 0 1 7.475 1.042 A 6.322 6.322 0 0 1 9.129 2.1 A 5.523 5.523 0 0 1 10.129 3.292 A 5.935 5.935 0 0 1 10.919 5.374 A 8.131 8.131 0 0 1 11.048 6.856 Q 11.048 8.939 10.129 10.415 A 5.707 5.707 0 0 1 7.947 12.437 A 7.088 7.088 0 0 1 7.475 12.67 Q 5.905 13.373 3.74 13.44 A 14.932 14.932 0 0 1 3.278 13.447 Z M 0.387 0.633 L 0.387 13.078 L 3.322 13.078 A 12.079 12.079 0 0 0 5.089 12.956 Q 6.3 12.777 7.273 12.336 A 6.031 6.031 0 0 0 8.836 11.329 A 5.273 5.273 0 0 0 9.782 10.2 A 5.639 5.639 0 0 0 10.545 8.159 A 7.583 7.583 0 0 0 10.652 6.856 A 7.38 7.38 0 0 0 10.486 5.25 A 5.509 5.509 0 0 0 9.782 3.507 A 5.449 5.449 0 0 0 7.766 1.623 A 6.772 6.772 0 0 0 7.273 1.376 A 7.902 7.902 0 0 0 5.466 0.819 Q 4.632 0.662 3.679 0.637 A 13.908 13.908 0 0 0 3.322 0.633 L 0.387 0.633 Z"/></g></svg><svg x="381.18372437951996" y="123.88914685691572"  width="22" height="11.3080" viewBox="0 0 26.675 13.711" xmlns="http://www.w3.org/2000/svg"><g id="svgGroup" stroke-linecap="round" fill-rule="nonzero" font-size="9pt" stroke="#4A5859" stroke-width="0.3mm" fill="#4A5859" style="stroke:#4A5859;stroke-width:0.3mm;fill:#4A5859"><path d="M 12.48 0.264 L 12.48 13.447 L 12.094 13.447 L 12.094 0.703 L 6.451 11.233 L 6.003 11.233 L 0.387 0.738 L 0.387 13.447 L 0 13.447 L 0 0.264 L 0.563 0.264 L 6.231 10.881 L 11.883 0.264 L 12.48 0.264 Z M 26.402 11.461 L 26.675 11.733 A 6.335 6.335 0 0 1 24.53 13.188 A 6.812 6.812 0 0 1 22.306 13.696 A 8.023 8.023 0 0 1 21.806 13.711 A 7.405 7.405 0 0 1 19.978 13.492 A 6.533 6.533 0 0 1 19.099 13.201 Q 17.859 12.692 16.945 11.769 A 6.467 6.467 0 0 1 15.53 9.593 A 7.067 7.067 0 0 1 15.053 7.494 A 8.383 8.383 0 0 1 15.029 6.856 Q 15.029 5.37 15.53 4.118 A 6.467 6.467 0 0 1 16.945 1.942 Q 17.859 1.02 19.099 0.51 A 6.857 6.857 0 0 1 21.263 0.018 A 8.103 8.103 0 0 1 21.806 0 A 7.297 7.297 0 0 1 23.643 0.225 A 6.449 6.449 0 0 1 24.526 0.523 Q 25.77 1.046 26.675 1.969 L 26.402 2.25 A 6.025 6.025 0 0 0 24.372 0.866 A 6.387 6.387 0 0 0 22.313 0.387 A 7.537 7.537 0 0 0 21.797 0.369 A 6.902 6.902 0 0 0 20.079 0.577 A 6.099 6.099 0 0 0 19.252 0.853 A 6.037 6.037 0 0 0 17.231 2.211 Q 16.374 3.085 15.899 4.267 A 6.654 6.654 0 0 0 15.448 6.251 A 7.924 7.924 0 0 0 15.425 6.856 A 7.283 7.283 0 0 0 15.62 8.565 A 6.335 6.335 0 0 0 15.899 9.444 A 6.209 6.209 0 0 0 17.231 11.501 A 6.037 6.037 0 0 0 19.252 12.858 A 6.396 6.396 0 0 0 21.287 13.325 A 7.552 7.552 0 0 0 21.797 13.342 A 6.813 6.813 0 0 0 23.576 13.116 A 6.055 6.055 0 0 0 24.372 12.841 A 6.144 6.144 0 0 0 26.402 11.461 Z"/></g></svg><svg x="298.8162756204801" y="556.1108531430843"  width="12" height="11.28477" viewBox="0 0 14.581 13.711" xmlns="http://www.w3.org/2000/svg"><g id="svgGroup" stroke-linecap="round" fill-rule="nonzero" font-size="9pt" stroke="#4A5859" stroke-width="0.3mm" fill="#4A5859" style="stroke:#4A5859;stroke-width:0.3mm;fill:#4A5859"><path d="M 14.309 11.461 L 14.581 11.733 A 6.335 6.335 0 0 1 12.437 13.188 A 6.812 6.812 0 0 1 10.213 13.696 A 8.023 8.023 0 0 1 9.712 13.711 A 7.405 7.405 0 0 1 7.884 13.492 A 6.533 6.533 0 0 1 7.005 13.201 Q 5.766 12.692 4.852 11.769 A 6.467 6.467 0 0 1 3.437 9.593 A 7.067 7.067 0 0 1 2.96 7.494 A 8.383 8.383 0 0 1 2.936 6.856 Q 2.936 5.37 3.437 4.118 A 6.467 6.467 0 0 1 4.852 1.942 Q 5.766 1.02 7.005 0.51 A 6.857 6.857 0 0 1 9.17 0.018 A 8.103 8.103 0 0 1 9.712 0 A 7.297 7.297 0 0 1 11.55 0.225 A 6.449 6.449 0 0 1 12.432 0.523 Q 13.676 1.046 14.581 1.969 L 14.309 2.25 A 6.025 6.025 0 0 0 12.278 0.866 A 6.387 6.387 0 0 0 10.219 0.387 A 7.537 7.537 0 0 0 9.703 0.369 A 6.902 6.902 0 0 0 7.985 0.577 A 6.099 6.099 0 0 0 7.159 0.853 A 6.037 6.037 0 0 0 5.137 2.211 Q 4.28 3.085 3.806 4.267 A 6.654 6.654 0 0 0 3.354 6.251 A 7.924 7.924 0 0 0 3.331 6.856 A 7.283 7.283 0 0 0 3.526 8.565 A 6.335 6.335 0 0 0 3.806 9.444 A 6.209 6.209 0 0 0 5.137 11.501 A 6.037 6.037 0 0 0 7.159 12.858 A 6.396 6.396 0 0 0 9.193 13.325 A 7.552 7.552 0 0 0 9.703 13.342 A 6.813 6.813 0 0 0 11.482 13.116 A 6.055 6.055 0 0 0 12.278 12.841 A 6.144 6.144 0 0 0 14.309 11.461 Z M 0.387 13.447 L 0 13.447 L 0 0.264 L 0.387 0.264 L 0.387 13.447 Z"/></g></svg><line id="Ox0cIBc2cg==" x1="105.0" y1="350.00000000000006" x2="300.0" y2="350.0" stroke="#201E50" stroke-width="1" stroke-dasharray="4,4" /><line id="Ox0cIBc2cQ==" x1="133.36879998536958" y1="464.437420366859" x2="305.78955101742235" y2="373.35457558507323" stroke="#201E50" stroke-width="1" stroke-dasharray="4,4" /><line id="Ox0cIBc2cA==" x1="202.32642497678432" y1="545.49300560343" x2="319.86253570954784" y2="389.896531755802" stroke="#201E50" stroke-width="1" stroke-dasharray="4,4" /><line id="Ox0cIBc2dw==" x1="304.1363069409892" y1="590.6689046366166" x2="340.6400626410182" y2="399.1161029870646" stroke="#201E50" stroke-width="1" stroke-dasharray="4,4" /><line id="Ox0cIBc2dg==" x1="432.02569269215155" y1="580.8609662510593" x2="366.73993728411256" y2="397.11448290837944" stroke="#201E50" stroke-width="1" stroke-dasharray="4,4" /><line id="Ox0cIBc2dQ==" x1="549.6040994863018" y1="492.06760175445527" x2="390.73553050740855" y2="378.99338811315414" stroke="#201E50" stroke-width="1" stroke-dasharray="4,4" /><line id="Ox0cIBc2dA==" x1="595.0" y1="349.99999999999994" x2="400.0" y2="350.0" stroke="#201E50" stroke-width="1" stroke-dasharray="4,4" /><line id="Ox0cIBc2ew==" x1="566.6312000146304" y1="235.56257963314093" x2="394.21044898257765" y2="326.6454244149267" stroke="#201E50" stroke-width="1" stroke-dasharray="4,4" /><line id="Ox0cIBc2eg==" x1="497.6735750232157" y1="154.50699439657004" x2="380.13746429045216" y2="310.103468244198" stroke="#201E50" stroke-width="1" stroke-dasharray="4,4" /><line id="Ox0cIBc2clg=" x1="395.8636930590108" y1="109.33109536338341" x2="359.3599373589818" y2="300.8838970129354" stroke="#201E50" stroke-width="1" stroke-dasharray="4,4" /><line id="Ox0cIBc2clk=" x1="267.97430730784845" y1="119.13903374894073" x2="333.26006271588744" y2="302.88551709162056" stroke="#201E50" stroke-width="1" stroke-dasharray="4,4" /><line id="Ox0cIBc2clo=" x1="150.3959005136981" y1="207.93239824554476" x2="309.26446949259145" y2="321.00661188684586" stroke="#201E50" stroke-width="1" stroke-dasharray="4,4" /><line id="EgEKNhwNIgYVMywCOQc=" x1="180.0" y1="350.0" x2="181.59255807425697" y2="326.7850586038325" stroke="#333745" stroke-width="2" /><line id="EgEKNhwNIgYVMywIJAoeEw0=" x1="180.0" y1="350.0" x2="270.75229013237123" y2="199.60119521506783" stroke="#89A1EF" stroke-width="2" /><line id="EgEKNhwNIgYVMzcIOBwY" x1="180.0" y1="350.0" x2="417.91515401893156" y2="194.15542404502875" stroke="#5C80BC" stroke-width="2" /><line id="EgEKNhwNIgYVMyIFPxsEDw==" x1="180.0" y1="350.0" x2="519.6345774587816" y2="361.1404726282428" stroke="#000000" stroke-width="2" /><line id="AAcHDD8GLAY=" x1="292.01878677920655" y1="190.19330767003254" x2="181.59255807425697" y2="326.7850586038325" stroke="#89A1EF" stroke-width="2" /><line id="AAcHDD8MMQsUHhg=" x1="292.01878677920655" y1="190.19330767003254" x2="270.75229013237123" y2="199.60119521506783" stroke="#333745" stroke-width="2" /><line id="AAcHDDgcMwEVCRM=" x1="292.01878677920655" y1="190.19330767003254" x2="308.9763817226123" y2="185.0240540459574" stroke="#333745" stroke-width="2" /><line id="AAcHDCQMMBwA" x1="292.01878677920655" y1="190.19330767003254" x2="185.53185764566453" y2="306.9856983026105" stroke="#89A1EF" stroke-width="2" /><line id="AAcHDDEBKhoOAg==" x1="292.01878677920655" y1="190.19330767003254" x2="519.6345774587816" y2="361.1404726282428" stroke="#5C80BC" stroke-width="2" /><line id="AAcHDD4ALwEVBA==" x1="292.01878677920655" y1="190.19330767003254" x2="472.7916304153837" y2="467.567918668027" stroke="#E55812" stroke-width="2" /><line id="AAcHDD8MIgZBIg4JMw==" x1="292.01878677920655" y1="190.19330767003254" x2="402.56131958109506" y2="511.6703673648761" stroke="#000000" stroke-width="2" /><line id="AAcHDCYbNg1BIg4JMw==" x1="292.01878677920655" y1="190.19330767003254" x2="402.6191925381602" y2="511.6515405946755" stroke="#000000" stroke-width="2" /><line id="AAcHDD8q" x1="292.01878677920655" y1="190.19330767003254" x2="381.82378702053813" y2="183.00524984398032" stroke="#A9B18F" stroke-width="2" /><line id="AAcHDDsq" x1="292.01878677920655" y1="190.19330767003254" x2="318.17621297946187" y2="516.9947501560197" stroke="#E55812" stroke-width="2" /><line id="Hh0GPS0kIhoS" x1="181.59255807425697" y1="326.7850586038325" x2="249.14499186217827" y2="213.14874010985534" stroke="#F55D3E" stroke-width="2" /><line id="Hh0GPS0kJhoCGRMU" x1="181.59255807425697" y1="326.7850586038325" x2="270.75229013237123" y2="199.60119521506783" stroke="#89A1EF" stroke-width="2" /><line id="Hh0GPS0_JhsVDQ==" x1="181.59255807425697" y1="326.7850586038325" x2="185.53185764566453" y2="306.9856983026105" stroke="#333745" stroke-width="2" /><line id="Hh0GPS0qKwETAw8=" x1="181.59255807425697" y1="326.7850586038325" x2="519.6345774587816" y2="361.1404726282428" stroke="#000000" stroke-width="2" /><line id="Hh0GPS0kJgkPTC8CMgw=" x1="181.59255807425697" y1="326.7850586038325" x2="402.56131958109506" y2="511.6703673648761" stroke="#5C80BC" stroke-width="2" /><line id="Hh0GPS09MR0ETC8CMgw=" x1="181.59255807425697" y1="326.7850586038325" x2="402.6191925381602" y2="511.6515405946755" stroke="#5C80BC" stroke-width="2" /><line id="Hh0GPS0tJhsCCQ8JNwcf" x1="181.59255807425697" y1="326.7850586038325" x2="520.0" y2="349.99999999999994" stroke="#000000" stroke-width="2" /><line id="Hh0GPS0kAA==" x1="181.59255807425697" y1="326.7850586038325" x2="381.82378702053813" y2="183.00524984398032" stroke="#A2666F" stroke-width="2" /><line id="Hh0GPS0gAA==" x1="181.59255807425697" y1="326.7850586038325" x2="318.17621297946187" y2="516.9947501560197" stroke="#A2666F" stroke-width="2" /><line id="HhMbIC0_JgYUHw==" x1="249.14499186217827" y1="213.14874010985534" x2="417.91515401893156" y2="194.15542404502875" stroke="#89A1EF" stroke-width="2" /><line id="HhMbIC0nJhgVGQ8I" x1="249.14499186217827" y1="213.14874010985534" x2="411.8290701960737" y2="191.64228443587285" stroke="#89A1EF" stroke-width="2" /><line id="HhMbIC0qJhoEHw==" x1="249.14499186217827" y1="213.14874010985534" x2="236.13372556349088" y2="223.76818330567528" stroke="#333745" stroke-width="2" /><line id="HhMbIC0jNgYO" x1="249.14499186217827" y1="213.14874010985534" x2="458.8884964496864" y2="480.5499725811026" stroke="#000000" stroke-width="2" /><line id="HhMbIC0tJhsCCQ8JNwcf" x1="249.14499186217827" y1="213.14874010985534" x2="520.0" y2="349.99999999999994" stroke="#5C80BC" stroke-width="2" /><line id="HhcbMAcbOjc3CQ8YJQ==" x1="270.75229013237123" y1="199.60119521506783" x2="417.91515401893156" y2="194.15542404502875" stroke="#333333" stroke-width="2" /><line id="HhcbMAcbOjciBAgfOQc=" x1="270.75229013237123" y1="199.60119521506783" x2="519.6345774587816" y2="361.1404726282428" stroke="#5C80BC" stroke-width="2" /><line id="HhcbMAcbOjclCRIOMwcPABoV" x1="270.75229013237123" y1="199.60119521506783" x2="520.0" y2="349.99999999999994" stroke="#5C80BC" stroke-width="2" /><line id="GQcZOgYMMTcxABQZOQ==" x1="308.9763817226123" y1="185.0240540459574" x2="513.7770086369482" y2="304.4248813283717" stroke="#A2666F" stroke-width="2" /><line id="GQcZOgYMMTc3CRIZNw==" x1="308.9763817226123" y1="185.0240540459574" x2="185.53185764566453" y2="306.9856983026105" stroke="#89A1EF" stroke-width="2" /><line id="GQcZOgYMMTcrGQ8C" x1="308.9763817226123" y1="185.0240540459574" x2="458.8884964496864" y2="480.5499725811026" stroke="#E55812" stroke-width="2" /><line id="GQcZOgYMMTcxDQ0BNxo=" x1="308.9763817226123" y1="185.0240540459574" x2="324.16796612491225" y2="181.97409120651565" stroke="#333745" stroke-width="2" /><line id="GQcZOgYMMTctBQ0EIgE=" x1="308.9763817226123" y1="185.0240540459574" x2="472.7916304153837" y2="467.567918668027" stroke="#E55812" stroke-width="2" /><line id="GQcZOgYMMTcsCQADdicEBRE=" x1="308.9763817226123" y1="185.0240540459574" x2="402.56131958109506" y2="511.6703673648761" stroke="#000000" stroke-width="2" /><line id="GQcZOgYMMTc1HhQIdicEBRE=" x1="308.9763817226123" y1="185.0240540459574" x2="402.6191925381602" y2="511.6515405946755" stroke="#000000" stroke-width="2" /><line id="BRcHJgE2DQ0RGBQDMw==" x1="417.91515401893156" y1="194.15542404502875" x2="411.8290701960737" y2="191.64228443587285" stroke="#333745" stroke-width="2" /><line id="BRcHJgE2EwQUGA4=" x1="417.91515401893156" y1="194.15542404502875" x2="513.7770086369482" y2="304.4248813283717" stroke="#333333" stroke-width="2" /><line id="BRcHJgE2AA0TCRI=" x1="417.91515401893156" y1="194.15542404502875" x2="236.13372556349088" y2="223.76818330567528" stroke="#89A1EF" stroke-width="2" /><line id="BRcHJgE2CR0PAw==" x1="417.91515401893156" y1="194.15542404502875" x2="458.8884964496864" y2="480.5499725811026" stroke="#5C80BC" stroke-width="2" /><line id="ABMdJgAHHCsJBRMCOA==" x1="209.31489854150735" y1="254.5657177550246" x2="519.6345774587816" y2="361.1404726282428" stroke="#E55812" stroke-width="2" /><line id="ABMdJgAHHCwEHwIIOA0KDwA=" x1="209.31489854150735" y1="254.5657177550246" x2="520.0" y2="349.99999999999994" stroke="#E55812" stroke-width="2" /><line id="ABMdJgAHHCEi" x1="209.31489854150735" y1="254.5657177550246" x2="318.17621297946187" y2="516.9947501560197" stroke="#5C80BC" stroke-width="2" /><line id="BgAIPQcaHDgNGRUC" x1="385.0233116719039" y1="183.64685864242696" x2="513.7770086369482" y2="304.4248813283717" stroke="#89A1EF" stroke-width="2" /><line id="BgAIPQcaHD4EHxUM" x1="385.0233116719039" y1="183.64685864242696" x2="185.53185764566453" y2="306.9856983026105" stroke="#A2666F" stroke-width="2" /><line id="BgAIPQcaHCQIAAgZPg==" x1="385.0233116719039" y1="183.64685864242696" x2="472.7916304153837" y2="467.567918668027" stroke="#5C80BC" stroke-width="2" /><line id="BgAIPQcaHCUEDQ9NGAYPBA==" x1="385.0233116719039" y1="183.64685864242696" x2="402.56131958109506" y2="511.6703673648761" stroke="#E55812" stroke-width="2" /><line id="BgAIPQcaHDwTGQRNGAYPBA==" x1="385.0233116719039" y1="183.64685864242696" x2="402.6191925381602" y2="511.6515405946755" stroke="#E55812" stroke-width="2" /><line id="BgAIPQcaHCUi" x1="385.0233116719039" y1="183.64685864242696" x2="381.82378702053813" y2="183.00524984398032" stroke="#333745" stroke-width="2" /><line id="BgAIPQcaHCEi" x1="385.0233116719039" y1="183.64685864242696" x2="318.17621297946187" y2="516.9947501560197" stroke="#000000" stroke-width="2" /><line id="HRcZJwcHJjciCRMIJQ==" x1="411.8290701960737" y1="191.64228443587285" x2="236.13372556349088" y2="223.76818330567528" stroke="#89A1EF" stroke-width="2" /><line id="HRcZJwcHJjcrGQ8C" x1="411.8290701960737" y1="191.64228443587285" x2="458.8884964496864" y2="480.5499725811026" stroke="#5C80BC" stroke-width="2" /><line id="HRcZJwcHJjcxDQ0BNxo=" x1="411.8290701960737" y1="191.64228443587285" x2="324.16796612491225" y2="181.97409120651565" stroke="#A9B18F" stroke-width="2" /><line id="HRcZJwcHJjciBAgfOQc=" x1="411.8290701960737" y1="191.64228443587285" x2="519.6345774587816" y2="361.1404726282428" stroke="#CD4631" stroke-width="2" /><line id="HRcZJwcHJjctBQ0EIgE=" x1="411.8290701960737" y1="191.64228443587285" x2="472.7916304153837" y2="467.567918668027" stroke="#5C80BC" stroke-width="2" /><line id="Ax4cJx02AA0TCRI=" x1="513.7770086369482" y1="304.4248813283717" x2="236.13372556349088" y2="223.76818330567528" stroke="#5C80BC" stroke-width="2" /><line id="Ax4cJx02FQ0SGAA=" x1="513.7770086369482" y1="304.4248813283717" x2="185.53185764566453" y2="306.9856983026105" stroke="#E55812" stroke-width="2" /><line id="Ax4cJx02CR0PAw==" x1="513.7770086369482" y1="304.4248813283717" x2="458.8884964496864" y2="480.5499725811026" stroke="#89A1EF" stroke-width="2" /><line id="Ax4cJx02DwENBRUF" x1="513.7770086369482" y1="304.4248813283717" x2="472.7916304153837" y2="467.567918668027" stroke="#89A1EF" stroke-width="2" /><line id="Ax4cJx02Dg0AAkEjOQ0O" x1="513.7770086369482" y1="304.4248813283717" x2="402.56131958109506" y2="511.6703673648761" stroke="#A2666F" stroke-width="2" /><line id="Ax4cJx02FxoUCUEjOQ0O" x1="513.7770086369482" y1="304.4248813283717" x2="402.6191925381602" y2="511.6515405946755" stroke="#A2666F" stroke-width="2" /><line id="Ax4cJx02Dis=" x1="513.7770086369482" y1="304.4248813283717" x2="381.82378702053813" y2="183.00524984398032" stroke="#89A1EF" stroke-width="2" /><line id="Ax4cJx02Cis=" x1="513.7770086369482" y1="304.4248813283717" x2="318.17621297946187" y2="516.9947501560197" stroke="#5C80BC" stroke-width="2" /><line id="EBcbNgE2CR0PAw==" x1="236.13372556349088" y1="223.76818330567528" x2="458.8884964496864" y2="480.5499725811026" stroke="#000000" stroke-width="2" /><line id="EBcbNgE2AAAIHg4D" x1="236.13372556349088" y1="223.76818330567528" x2="519.6345774587816" y2="361.1404726282428" stroke="#A9B18F" stroke-width="2" /><line id="EBcbNgE2DwENBRUF" x1="236.13372556349088" y1="223.76818330567528" x2="472.7916304153837" y2="467.567918668027" stroke="#000000" stroke-width="2" /><line id="EBcbNgE2Cis=" x1="236.13372556349088" y1="223.76818330567528" x2="318.17621297946187" y2="516.9947501560197" stroke="#5C80BC" stroke-width="2" /><line id="BRcaJxM2DwENBRUF" x1="185.53185764566453" y1="306.9856983026105" x2="472.7916304153837" y2="467.567918668027" stroke="#E55812" stroke-width="2" /><line id="BRcaJxM2Dg0AAkEjOQ0O" x1="185.53185764566453" y1="306.9856983026105" x2="402.56131958109506" y2="511.6703673648761" stroke="#5C80BC" stroke-width="2" /><line id="BRcaJxM2FxoUCUEjOQ0O" x1="185.53185764566453" y1="306.9856983026105" x2="402.6191925381602" y2="511.6515405946755" stroke="#5C80BC" stroke-width="2" /><line id="BRcaJxM2Dis=" x1="185.53185764566453" y1="306.9856983026105" x2="381.82378702053813" y2="183.00524984398032" stroke="#A2666F" stroke-width="2" /><line id="BRcaJxM2Cis=" x1="185.53185764566453" y1="306.9856983026105" x2="318.17621297946187" y2="516.9947501560197" stroke="#A2666F" stroke-width="2" /><line id="GQcHPC05IgQNDRI=" x1="458.8884964496864" y1="480.5499725811026" x2="324.16796612491225" y2="181.97409120651565" stroke="#E55812" stroke-width="2" /><line id="GQcHPC0lKgQIGAk=" x1="458.8884964496864" y1="480.5499725811026" x2="472.7916304153837" y2="467.567918668027" stroke="#333745" stroke-width="2" /><line id="GQcHPC0tJhsCCQ8JNwcf" x1="458.8884964496864" y1="480.5499725811026" x2="520.0" y2="349.99999999999994" stroke="#333333" stroke-width="2" /><line id="GQcHPC0gAA==" x1="458.8884964496864" y1="480.5499725811026" x2="318.17621297946187" y2="516.9947501560197" stroke="#333333" stroke-width="2" /><line id="EBoAIR0HHCwEHwIIOA0KDwA=" x1="519.6345774587816" y1="361.1404726282428" x2="520.0" y2="349.99999999999994" stroke="#333745" stroke-width="2" /><line id="HxsFOgYBHCUi" x1="472.7916304153837" y1="467.567918668027" x2="381.82378702053813" y2="183.00524984398032" stroke="#5C80BC" stroke-width="2" /><line id="HxsFOgYBHCEi" x1="472.7916304153837" y1="467.567918668027" x2="318.17621297946187" y2="516.9947501560197" stroke="#89A1EF" stroke-width="2" /><line id="HhcIPVInLAwEMzUfIwxLLxsFLg==" x1="402.56131958109506" y1="511.6703673648761" x2="402.6191925381602" y2="511.6515405946755" stroke="#333745" stroke-width="2" /><line id="HhcIPVInLAwEMyUIJQoODxAAJRU=" x1="402.56131958109506" y1="511.6703673648761" x2="520.0" y2="349.99999999999994" stroke="#CD4631" stroke-width="2" /><line id="HhcIPVInLAwEMywu" x1="402.56131958109506" y1="511.6703673648761" x2="381.82378702053813" y2="183.00524984398032" stroke="#E55812" stroke-width="2" /><line id="BwAcNlInLAwEMyUIJQoODxAAJRU=" x1="402.6191925381602" y1="511.6515405946755" x2="520.0" y2="349.99999999999994" stroke="#CD4631" stroke-width="2" /><line id="BwAcNlInLAwEMywu" x1="402.6191925381602" y1="511.6515405946755" x2="381.82378702053813" y2="183.00524984398032" stroke="#E55812" stroke-width="2" /></svg>