<?xml version="1.0" encoding="UTF-8"?>
<svg xmlns="http://www.w3.org/2000/svg" width="1024" height="1024" viewBox="0 0 1024 1024">

  <defs>
    <radialGradient id="sun-photosphere" cx="50%" cy="50%" r="50%">
      <stop offset="0%"  stop-color="#fff6b3"/>
      <stop offset="45%" stop-color="#ffd259"/>
      <stop offset="70%" stop-color="#ff9a1a"/>
      <stop offset="100%" stop-color="#c84b00"/>
    </radialGradient>
    <radialGradient id="sun-corona" cx="50%" cy="50%" r="60%">
      <stop offset="0%" stop-color="rgba(255,208,85,.55)"/>
      <stop offset="70%" stop-color="rgba(255,144,0,.18)"/>
      <stop offset="100%" stop-color="rgba(255,144,0,0)"/>
    </radialGradient>
    <filter id="sun-noise" x="-20%" y="-20%" width="140%" height="140%">
      <feTurbulence type="fractalNoise" baseFrequency="0.85" numOctaves="4" seed="7" result="n1"/>
      <feGaussianBlur stdDeviation="0.6" in="n1" result="n2"/>
      <feDisplacementMap in="SourceGraphic" in2="n2" scale="14" xChannelSelector="R" yChannelSelector="G" />
      <feColorMatrix type="saturate" values="1.2"/>
    </filter>
    <filter id="sun-glow" x="-50%" y="-50%" width="200%" height="200%">
      <feGaussianBlur stdDeviation="18" edgeMode="duplicate"/>
    </filter>
    <radialGradient id="sun-limb" cx="50%" cy="50%" r="50%">
      <stop offset="70%" stop-color="rgba(0,0,0,0)"/>
      <stop offset="100%" stop-color="rgba(0,0,0,0.20)"/>
    </radialGradient>
    <mask id="sun-disc">
      <rect width="1024" height="1024" fill="black"/>
      <circle cx="512" cy="512" r="388" fill="white"/>
    </mask>
  </defs>
  <g filter="url(#sun-glow)" opacity="0.9">
    <circle cx="512" cy="512" r="460" fill="url(#sun-corona)"/>
  </g>
  <g mask="url(#sun-disc)">
    <circle cx="512" cy="512" r="388" fill="url(#sun-photosphere)" filter="url(#sun-noise)"/>
    <circle cx="512" cy="512" r="388" fill="url(#sun-limb)" />
  </g>
  <g opacity="0.65" filter="url(#sun-glow)">
    <path d="M512 36 C 550 60, 560 80, 560 100 C 520 100, 500 80, 512 36 Z" fill="#ff7a00"/>
    <path d="M950 512 C 930 540, 900 550, 880 560 C 892 520, 920 510, 950 512 Z" fill="#ff7a00"/>
    <path d="M74 512 C 120 492, 130 480, 148 468 C 110 468, 96 490, 74 512 Z" fill="#ff7a00"/>
    <path d="M512 988 C 486 950, 476 930, 474 910 C 512 920, 528 940, 512 988 Z" fill="#ff7a00"/>
  </g>

</svg>